<?xml version="1.0" standalone="no"?><!DOCTYPE svg PUBLIC "-//W3C//DTD SVG 1.1//EN" "http://www.w3.org/Graphics/SVG/1.1/DTD/svg11.dtd"><svg t="1737380742727" class="icon" viewBox="0 0 1024 1024" version="1.1" xmlns="http://www.w3.org/2000/svg" p-id="12506" xmlns:xlink="http://www.w3.org/1999/xlink" width="200" height="200"><path d="M228 396a155 155 0 0 0-110.31 45.69c-60.82 60.83-60.82 159.79 0 220.62a156 156 0 0 0 220.62 0c60.82-60.83 60.82-159.79 0-220.62A155 155 0 0 0 228 396z m56.57 212.57a80 80 0 1 1 0-113.14 79.48 79.48 0 0 1 0 113.14zM632 648a131 131 0 1 0 92.63 38.37A130.15 130.15 0 0 0 632 648z m41.72 172.72a59 59 0 1 1 0-83.44 59 59 0 0 1 0 83.44z m122.04-647.48c-74.86-74.87-196.66-74.87-271.52 0a192 192 0 1 0 271.52 0zM742 391a116 116 0 1 1 34-82 116.12 116.12 0 0 1-34 82z" p-id="12507" fill="#ffffff"></path></svg>