<?xml version="1.0" standalone="no"?><!DOCTYPE svg PUBLIC "-//W3C//DTD SVG 1.1//EN" "http://www.w3.org/Graphics/SVG/1.1/DTD/svg11.dtd"><svg t="1736153995348" class="icon" viewBox="0 0 1024 1024" version="1.1" xmlns="http://www.w3.org/2000/svg" p-id="11926" xmlns:xlink="http://www.w3.org/1999/xlink" width="200" height="200"><path d="M814.933333 42.666667a123.733333 123.733333 0 0 1 123.52 116.48L938.666667 166.4v358.4l-0.170667 3.626667a298.666667 298.666667 0 0 1-410.026667 410.026666L524.8 938.666667H166.4a123.733333 123.733333 0 0 1-123.52-116.48L42.666667 814.933333V166.4a123.733333 123.733333 0 0 1 116.48-123.52L166.4 42.666667h648.533333zM682.666667 469.333333a213.333333 213.333333 0 1 0 0 426.666667 213.333333 213.333333 0 0 0 0-426.666667z m132.266666-341.333333H166.4a38.4 38.4 0 0 0-38.101333 33.578667L128 166.4v648.533333a38.4 38.4 0 0 0 33.578667 38.101334L166.4 853.333333l271.189333 0.042667a298.666667 298.666667 0 0 1 415.829334-415.829333L853.333333 166.4a38.4 38.4 0 0 0-33.578666-38.101333L814.933333 128z m-162.432 464.170667l30.165334 30.165333 30.165333-30.165333a42.666667 42.666667 0 1 1 60.330667 60.330666l-30.165334 30.165334 30.165334 30.165333a42.666667 42.666667 0 1 1-60.330667 60.330667L682.666667 742.997333l-30.165334 30.165334a42.666667 42.666667 0 1 1-60.330666-60.330667l30.165333-30.165333-30.165333-30.165334a42.666667 42.666667 0 1 1 60.330666-60.330666z" p-id="11927" fill="#ffffff"></path></svg>