<?xml version="1.0" standalone="no"?><!DOCTYPE svg PUBLIC "-//W3C//DTD SVG 1.1//EN" "http://www.w3.org/Graphics/SVG/1.1/DTD/svg11.dtd"><svg t="1714461120550" class="icon" viewBox="0 0 1024 1024" version="1.1" xmlns="http://www.w3.org/2000/svg" p-id="23816" xmlns:xlink="http://www.w3.org/1999/xlink" width="200" height="200"><path d="M895.488 644.992v-268.8a83.648 83.648 0 0 0 66.624-80.384c0-45.952-36.736-80.384-80.384-80.384-22.976 0-45.952 11.456-59.712 27.584l-229.76-128.64c2.304-6.976 4.608-13.824 4.608-23.04C596.864 45.376 560.128 10.944 516.48 10.944S436.096 47.68 436.096 91.328c0 6.912 2.304 13.76 2.304 20.672L208.64 242.944c-18.432-18.368-39.104-29.888-62.08-29.888-45.952 0-80.384 36.736-80.384 80.384 0 39.04 27.584 71.232 64.32 80.384v271.104c-36.736 9.216-64.32 41.344-64.32 80.384 0 45.952 36.736 80.384 80.384 80.384 22.976 0 45.952-11.456 59.712-27.584l232.064 128.64a73.28 73.28 0 0 0-6.912 32.192c0 45.952 36.736 80.384 80.384 80.384s80.384-36.736 80.384-80.384c0-11.456-2.304-22.976-6.912-34.432l232.064-126.336c16.064 16.064 36.736 27.584 62.016 27.584 45.952 0 80.384-36.736 80.384-80.384 2.368-41.344-25.152-73.472-64.256-80.384z m-333.12 229.76a75.84 75.84 0 0 0-27.584-13.76v-204.48h-39.04v204.48c-11.456 2.304-22.976 9.216-32.192 16.064l-236.608-130.944c2.304-6.912 2.304-13.76 2.304-20.672 0-36.736-25.28-68.928-59.712-78.144V373.888c13.76-4.608 25.28-9.216 34.432-20.672L376.256 458.88l20.672-32.192-172.288-105.6c2.304-9.216 4.608-16.064 4.608-25.28 0-6.912-2.304-13.76-2.304-20.672l229.76-130.944c13.76 16.064 36.736 25.216 59.712 25.216 22.976 0 43.648-9.216 57.408-25.28l229.76 130.944c-2.304 6.912-2.304 13.76-2.304 20.672 0 9.216 2.304 16.064 4.608 25.28L633.6 426.752l20.672 32.192 169.984-103.36c9.216 9.216 20.672 16.064 34.432 20.672v273.408c-34.432 9.216-57.408 41.344-57.408 78.144 0 6.912 0 13.76 2.304 18.368l-241.216 128.576z" p-id="23817" fill="#1afa29"></path><path d="M437.76 588.736a105.6 105.6 0 1 0 149.44-149.44A105.6 105.6 0 1 0 437.76 588.736z" p-id="23818" fill="#1afa29"></path></svg>