<?xml version="1.0" standalone="no"?><!DOCTYPE svg PUBLIC "-//W3C//DTD SVG 1.1//EN" "http://www.w3.org/Graphics/SVG/1.1/DTD/svg11.dtd"><svg t="1714460009038" class="icon" viewBox="0 0 1024 1024" version="1.1" xmlns="http://www.w3.org/2000/svg" p-id="18485" xmlns:xlink="http://www.w3.org/1999/xlink" width="200" height="200"><path d="M512 1024c282.77 0 512-229.23 512-512S794.77 0 512 0 0 229.23 0 512s229.23 512 512 512z m106.646-330.998v32.421c0 47.079-38.14 85.244-85.542 85.244h-42.25c-47.243 0-85.542-38.326-85.542-85.244v-32.421c-51.455-34.443-85.333-93.099-85.333-159.668 0-106.039 85.961-192 192-192s192 85.961 192 192c0 66.569-33.878 125.225-85.333 159.668z m-64-38.952v50.006c0 23.533-18.938 42.611-42.667 42.611-23.564 0-42.667-19.112-42.667-42.611V654.05c-49.715-17.572-85.333-64.985-85.333-120.717 0-70.692 57.308-128 128-128s128 57.308 128 128c0 55.732-35.618 103.145-85.333 120.717z m-64-440.464c0-11.921 9.896-21.586 21.333-21.586 11.782 0 21.333 9.844 21.333 21.586v63.495c0 11.921-9.896 21.586-21.333 21.586-11.782 0-21.333-9.844-21.333-21.586v-63.495zM315.189 292.9c-8.43-8.43-8.266-22.261-0.178-30.348 8.331-8.331 22.046-8.124 30.348 0.178l44.898 44.898c8.43 8.43 8.266 22.261 0.178 30.348-8.331 8.331-22.046 8.124-30.348-0.178L315.189 292.9z m393.788 0l-44.898 44.898c-8.303 8.303-22.017 8.51-30.348 0.178-8.088-8.088-8.251-21.919 0.178-30.348l44.898-44.898c8.303-8.303 22.017-8.51 30.348-0.178 8.088 8.088 8.251 21.919-0.178 30.348z" p-id="18486" fill="#ffffff"></path></svg>