<?xml version="1.0" standalone="no"?><!DOCTYPE svg PUBLIC "-//W3C//DTD SVG 1.1//EN" "http://www.w3.org/Graphics/SVG/1.1/DTD/svg11.dtd"><svg t="1717587610994" class="icon" viewBox="0 0 1024 1024" version="1.1" xmlns="http://www.w3.org/2000/svg" p-id="7753" xmlns:xlink="http://www.w3.org/1999/xlink" width="200" height="200"><path d="M740.693333 353.28h177.493334c39.253333 0 71.68 32.426667 71.68 71.68v494.933333c0 39.253333-32.426667 71.68-71.68 71.68h-494.933334c-39.253333 0-71.68-32.426667-71.68-71.68V740.693333h238.933334c81.92 0 148.48-66.56 148.48-148.48l1.706666-238.933333z m-168.96 317.44H105.813333c-39.253333 0-71.68-32.426667-71.68-71.68v-494.933333C34.133333 66.56 66.56 34.133333 105.813333 34.133333h494.933334c39.253333 0 71.68 32.426667 71.68 71.68v494.933334c0 39.253333-32.426667 71.68-71.68 71.68h-29.013334zM92.16 718.506667c-10.24-10.24-23.893333-11.946667-37.546667-6.826667-11.946667 5.12-20.48 17.066667-20.48 30.72v160.426667c0 18.773333 15.36 34.133333 34.133334 34.133333s34.133333-15.36 34.133333-34.133333v-76.8l155.306667 155.306666c6.826667 6.826667 15.36 10.24 23.893333 10.24s17.066667-3.413333 23.893333-10.24c13.653333-13.653333 13.653333-34.133333 0-47.786666L92.16 718.506667zM955.733333 87.04c-18.773333 0-34.133333 15.36-34.133333 34.133333v76.8l-155.306667-155.306666c-13.653333-13.653333-34.133333-13.653333-47.786666 0-13.653333 13.653333-13.653333 34.133333 0 47.786666l213.333333 213.333334c6.826667 6.826667 15.36 10.24 23.893333 10.24 5.12 0 8.533333-1.706667 13.653334-3.413334 13.653333-5.12 20.48-17.066667 20.48-30.72V121.173333c0-18.773333-15.36-34.133333-34.133334-34.133333z" fill="#ffffff" p-id="7754"></path></svg>