<?xml version="1.0" standalone="no"?><!DOCTYPE svg PUBLIC "-//W3C//DTD SVG 1.1//EN" "http://www.w3.org/Graphics/SVG/1.1/DTD/svg11.dtd"><svg t="1726045754880" class="icon" viewBox="0 0 1024 1024" version="1.1" xmlns="http://www.w3.org/2000/svg" p-id="4889" xmlns:xlink="http://www.w3.org/1999/xlink" width="200" height="200"><path d="M940.373333 768.512a41.813333 41.813333 0 1 1 83.626667 0v106.837333A148.650667 148.650667 0 0 1 875.349333 1024H170.666667a170.666667 170.666667 0 0 1-170.666667-170.666667V170.666667a170.666667 170.666667 0 0 1 170.666667-170.666667h733.866666A119.466667 119.466667 0 0 1 1024 119.466667v77.653333a41.813333 41.813333 0 1 1-83.626667 0v-34.432c0-42.112-34.133333-76.245333-76.245333-76.245333H172.501333a85.333333 85.333333 0 0 0-85.333333 85.333333v682.752a85.333333 85.333333 0 0 0 85.333333 85.333333H855.04a85.333333 85.333333 0 0 0 85.333333-85.333333v-86.016zM257.792 512a42.325333 42.325333 0 1 1 0-84.608h168.405333a42.325333 42.325333 0 0 1 0 84.608H257.792z m-1.450667-171.392a42.325333 42.325333 0 1 1 0-84.608h384.597334a42.325333 42.325333 0 0 1 0 84.608H256.341333z m428.373334 485.973333a42.666667 42.666667 0 0 1-57.898667 0.170667l-128-117.504a42.368 42.368 0 0 1-1.792-60.714667 44.032 44.032 0 0 1 61.909333-1.28l96.853334 91.989334 280.277333-258.133334a42.496 42.496 0 0 1 59.904 2.346667c15.018667 16.213333 14.08 41.514667-2.133333 56.533333l-309.162667 286.592z" fill="#979797" p-id="4890"></path></svg>