<?xml version="1.0" standalone="no"?><!DOCTYPE svg PUBLIC "-//W3C//DTD SVG 1.1//EN" "http://www.w3.org/Graphics/SVG/1.1/DTD/svg11.dtd"><svg t="1733132135685" class="icon" viewBox="0 0 1024 1024" version="1.1" xmlns="http://www.w3.org/2000/svg" p-id="3267" xmlns:xlink="http://www.w3.org/1999/xlink" width="200" height="200"><path d="M819.2 0a120.4736 120.4736 0 1 1-39.68 234.24l-111.5136 167.2704c12.6464 14.08 22.016 31.232 26.8288 50.1248l93.7472 0.0512a84.3264 84.3264 0 1 1 0 60.2112l-93.696 0.0512a120.4224 120.4224 0 0 1-40.7552 63.3856l95.6928 209.5104a120.4736 120.4736 0 1 1-54.7328 25.0368l-95.7952-209.4592a119.296 119.296 0 0 1-63.8976-5.9392l-73.216 103.5264a66.2528 66.2528 0 1 1-49.2032-34.7648l73.2672-103.5264a120.576 120.576 0 0 1-27.0336-58.7264l-153.1904-14.336a120.4736 120.4736 0 1 1 5.632-60.0576l153.1904 14.336a121.344 121.344 0 0 1 39.7312-54.4256l-47.6672-111.1552a48.128 48.128 0 1 1 55.3984-23.7568l47.616 111.1552a119.4496 119.4496 0 0 1 57.9072 5.2736l111.5136-167.3216A120.5248 120.5248 0 0 1 819.2 0z" p-id="3268" fill="#ffffff"></path></svg>