<?xml version="1.0" standalone="no"?><!DOCTYPE svg PUBLIC "-//W3C//DTD SVG 1.1//EN" "http://www.w3.org/Graphics/SVG/1.1/DTD/svg11.dtd"><svg t="1717581766112" class="icon" viewBox="0 0 1024 1024" version="1.1" xmlns="http://www.w3.org/2000/svg" p-id="4116" xmlns:xlink="http://www.w3.org/1999/xlink" width="200" height="200"><path d="M967.111111 910.222222a56.888889 56.888889 0 0 1 0 113.777778h-341.333333a56.888889 56.888889 0 0 1 0-113.777778zM314.936889 739.555556l40.220444 40.220444-120.718222 120.661333L113.777778 779.832889 153.998222 739.555556l80.440889 80.440888zM796.444444 568.888889a56.888889 56.888889 0 0 1 0 113.777778h-170.666666a56.888889 56.888889 0 0 1 0-113.777778z m170.666667-227.555556a56.888889 56.888889 0 0 1 0 113.777778h-341.333333a56.888889 56.888889 0 0 1 0-113.777778zM314.936889 170.666667l40.220444 40.220444L234.382222 331.548444 113.777778 210.944 153.998222 170.666667l80.440889 80.440889zM796.444444 0a56.888889 56.888889 0 0 1 0 113.777778h-170.666666a56.888889 56.888889 0 0 1 0-113.777778z" p-id="4117" fill="#ffffff"></path><path d="M455.111111 568.888889v455.111111H0v-455.111111z m-56.888889 56.888889H56.888889v341.333333h341.333333z m568.888889 113.777778a56.888889 56.888889 0 0 1 0 113.777777h-341.333333a56.888889 56.888889 0 0 1 0-113.777777zM455.111111 0v455.111111H0V0zM398.222222 56.888889H56.888889v341.333333h341.333333z m568.888889 113.777778a56.888889 56.888889 0 0 1 0 113.777777h-341.333333a56.888889 56.888889 0 0 1 0-113.777777z" p-id="4118" fill="#ffffff"></path></svg>