<?xml version="1.0" standalone="no"?><!DOCTYPE svg PUBLIC "-//W3C//DTD SVG 1.1//EN" "http://www.w3.org/Graphics/SVG/1.1/DTD/svg11.dtd"><svg t="1710818099028" class="icon" viewBox="0 0 1024 1024" version="1.1" xmlns="http://www.w3.org/2000/svg" p-id="4311" xmlns:xlink="http://www.w3.org/1999/xlink" width="200" height="200"><path d="M949.449204 250.204367L519.901942 2.153684a16.075871 16.075871 0 0 0-16.075871 0L74.439568 250.204367a16.075871 16.075871 0 0 0-8.037935 13.825249v495.940607a16.075871 16.075871 0 0 0 8.037935 13.825249l429.386503 248.050683a16.075871 16.075871 0 0 0 16.075871 0l429.547262-248.050683a16.075871 16.075871 0 0 0 8.037935-13.825249V264.029616a16.075871 16.075871 0 0 0-8.037935-13.825249z m-148.219527 390.482897a32.151741 32.151741 0 0 1-32.151741 32.151741h-514.427859a32.151741 32.151741 0 0 1-32.151741-32.151741v-257.21393a32.151741 32.151741 0 0 1 32.151741-32.151741h118.157649a148.541044 148.541044 0 0 1 278.112561 0h118.318407a32.151741 32.151741 0 0 1 32.151742 32.151741z" fill="#ffffff" p-id="4312"></path><path d="M286.801818 608.535522h450.124377v-192.910446h-450.124377z m225.062189-128.606964a16.075871 16.075871 0 0 1 16.07587-16.075871h128.606965a16.075871 16.075871 0 0 1 16.07587 16.075871v64.303482a16.075871 16.075871 0 0 1-16.07587 16.075871h-128.606965a16.075871 16.075871 0 0 1-16.07587-16.075871z m-112.531095-16.075871a48.227612 48.227612 0 1 1-48.227611 48.227612 48.227612 48.227612 0 0 1 48.227611-48.227612z" fill="#ffffff" p-id="4313"></path><path d="M511.864007 311.131917m-32.151742 0a32.151741 32.151741 0 1 0 64.303483 0 32.151741 32.151741 0 1 0-64.303483 0Z" fill="#ffffff" p-id="4314"></path></svg>