<?xml version="1.0" standalone="no"?><!DOCTYPE svg PUBLIC "-//W3C//DTD SVG 1.1//EN" "http://www.w3.org/Graphics/SVG/1.1/DTD/svg11.dtd"><svg t="1713493662705" class="icon" viewBox="0 0 1200 1024" version="1.1" xmlns="http://www.w3.org/2000/svg" p-id="6687" xmlns:xlink="http://www.w3.org/1999/xlink" width="234.375" height="200"><path d="M1150.834621 323.196803L677.388068 22.377622a148.011988 148.011988 0 0 0-156.323677 0L48.257199 323.196803a103.256743 103.256743 0 0 0 0 174.225774l472.807192 300.499501a145.774226 145.774226 0 0 0 156.323677 0l473.446553-300.499501a103.256743 103.256743 0 0 0 0-174.225774z m-336.303696 237.842158a45.714286 45.714286 0 1 1-63.936064 63.936064l-150.569431-150.569431-152.487512 151.208792a45.714286 45.714286 0 0 1-63.936064-63.936064l150.569431-150.569431-150.569431-151.208791a45.714286 45.714286 0 0 1 63.936064-63.936064l150.569431 150.569431 150.56943-150.569431a45.714286 45.714286 0 1 1 63.936064 63.936064l-150.569431 150.56943z" p-id="6688" fill="#ffffff"></path><path d="M1146.998457 530.34965L646.698757 853.866134a98.141858 98.141858 0 0 1-107.412587 0L43.461994 530.34965a27.716284 27.716284 0 1 0-30.36963 46.353647l496.143856 323.836164a153.126873 153.126873 0 0 0 167.512487 0l500.2997-323.836164a27.62038 27.62038 0 0 0-30.04995-46.353647z m0 0" p-id="6689" fill="#ffffff"></path><path d="M1146.998457 627.532468L646.698757 951.048951a98.461538 98.461538 0 0 1-107.412587 0L43.461994 627.532468a27.62038 27.62038 0 1 0-30.04995 46.353646l495.824176 325.114885a152.807193 152.807193 0 0 0 167.512487 0l500.2997-325.434565a27.62038 27.62038 0 1 0-30.04995-46.353647z m0 0" p-id="6690" fill="#ffffff"></path></svg>