<?xml version="1.0" standalone="no"?><!DOCTYPE svg PUBLIC "-//W3C//DTD SVG 1.1//EN" "http://www.w3.org/Graphics/SVG/1.1/DTD/svg11.dtd"><svg t="1701936731797" class="icon" viewBox="0 0 1024 1024" version="1.1" xmlns="http://www.w3.org/2000/svg" p-id="3370" xmlns:xlink="http://www.w3.org/1999/xlink" width="200" height="200"><path d="M956.2 26.3c-17.7-3.5-37.2 5.3-44.3 23.1-10.6 24.8-113.5 131.3-202.2 134.8-51.4 1.8-97.6-31.9-149-69.2-63.9-46.1-134.8-99.3-227-81.6C200.6 60 136.8 180.6 133.2 184.2c-3.6 8.9-5.3 17.7-3.6 26.6l39 172L282.2 883c3.5 17.7 19.5 30.2 37.2 30.2 3.6 0 5.3 0 8.9-1.8 21.3-5.3 33.7-24.8 30.2-46.1l-65.6-290.9c17.7-26.6 67.4-92.2 145.4-110 46.1-10.6 83.4 1.8 127.7 16 47.9 16 102.9 33.7 172 17.7 147.2-33.7 246.5-207.5 248.3-432.8 0.1-17.7-12.3-33.7-30.1-39z m0 0" p-id="3371" fill="#ffffff"></path><path d="M472 1012c-115.1 0-223.8-19.8-306.1-55.8-91.5-40-141.8-96.7-141.8-159.5 0-65.2 53.6-123.2 151-163.5 17.7-7.3 38 1.1 45.3 18.8 7.3 17.7-1.1 38-18.8 45.3-67.7 28-108.1 65.1-108.1 99.4 0 32.7 37.5 68.6 100.3 96 73.8 32.3 172.6 50 278.3 50s204.6-17.8 278.3-50c62.8-27.5 100.3-63.3 100.3-96s-37.5-68.6-100.3-96c-73.8-32.3-172.6-50-278.3-50-39.4 0-78.2 2.5-115.5 7.4-19 2.5-36.4-10.8-38.9-29.8s10.8-36.4 29.8-38.9c40.3-5.3 82.2-8 124.6-8 115.1 0 223.8 19.8 306.1 55.8 91.5 40 141.8 96.7 141.8 159.5s-50.4 119.6-141.8 159.5C695.8 992.1 587.1 1012 472 1012z" p-id="3372" fill="#ffffff"></path></svg>