<?xml version="1.0" standalone="no"?><!DOCTYPE svg PUBLIC "-//W3C//DTD SVG 1.1//EN" "http://www.w3.org/Graphics/SVG/1.1/DTD/svg11.dtd"><svg t="1737380597903" class="icon" viewBox="0 0 1024 1024" version="1.1" xmlns="http://www.w3.org/2000/svg" p-id="2569" xmlns:xlink="http://www.w3.org/1999/xlink" width="200" height="200"><path d="M512 42.666667a192 192 0 1 0 0 384 192 192 0 0 0 0-384zM405.333333 234.666667a106.666667 106.666667 0 1 1 213.333334 0 106.666667 106.666667 0 0 1-213.333334 0zM128 874.666667c0-160.384 147.968-298.666667 341.333333-298.666667a42.666667 42.666667 0 1 0 0-85.333333c-230.784 0-426.666667 167.338667-426.666666 384a42.666667 42.666667 0 1 0 85.333333 0zM490.666667 725.333333a234.666667 234.666667 0 1 1 469.333333 0 234.666667 234.666667 0 0 1-469.333333 0z m234.666666-149.333333a149.333333 149.333333 0 1 0 0 298.666667 149.333333 149.333333 0 0 0 0-298.666667z" fill="#ffffff" fill-opacity=".85" p-id="2570"></path><path d="M512 128a106.666667 106.666667 0 1 0 0 213.333333 106.666667 106.666667 0 0 0 0-213.333333zM576 725.333333a149.333333 149.333333 0 1 1 298.666667 0 149.333333 149.333333 0 0 1-298.666667 0z m170.666667-64a42.666667 42.666667 0 1 0-85.333334 0v85.333334a42.666667 42.666667 0 0 0 42.666667 42.666666h85.333333a42.666667 42.666667 0 1 0 0-85.333333h-42.666666v-42.666667z" fill="#ffffff" fill-opacity=".85" p-id="2571"></path></svg>