<?xml version="1.0" standalone="no"?><!DOCTYPE svg PUBLIC "-//W3C//DTD SVG 1.1//EN" "http://www.w3.org/Graphics/SVG/1.1/DTD/svg11.dtd"><svg t="1711939596019" class="icon" viewBox="0 0 1024 1024" version="1.1" xmlns="http://www.w3.org/2000/svg" p-id="4092" xmlns:xlink="http://www.w3.org/1999/xlink" width="200" height="200"><path d="M937.1 458H730.3V339.9c-3.4 0-7 1-9.6 3.1L514.6 504.5c-5.3 4.2-5.3 10.9 0 15L720.7 681c2.7 2.1 6.2 3.1 9.6 3.1v-118h206.8c12.7 0 22.9-10.3 22.9-22.9v-62.3c0-12.7-10.3-22.9-22.9-22.9zM603.4 795.7H209.2V228.3h394.1v64.9h145.2V83.1H64v857.8h684.6V735.5H603.4v60.2z m11.2-481.6L454 439.5l20.5 26.3 160.6-125.4-20.5-26.3z m0 392.6l20.5-26.3L474.5 555 454 581.3l160.6 125.4z" fill="#ffffff" p-id="4093"></path></svg>