<?xml version="1.0" standalone="no"?><!DOCTYPE svg PUBLIC "-//W3C//DTD SVG 1.1//EN" "http://www.w3.org/Graphics/SVG/1.1/DTD/svg11.dtd"><svg t="1719416091146" class="icon" viewBox="0 0 1024 1024" version="1.1" xmlns="http://www.w3.org/2000/svg" p-id="17482" xmlns:xlink="http://www.w3.org/1999/xlink" width="200" height="200"><path d="M912 820.096V203.904A72.032 72.032 0 0 0 888 64c-31.296 0-58.016 20-67.904 48H203.904A72.032 72.032 0 0 0 64 136c0 31.296 20 58.016 48 67.904v616.192A72.032 72.032 0 0 0 136 960c31.296 0 58.016-20 67.904-48h616.192A72.032 72.032 0 0 0 960 888c0-31.296-20-58.016-48-67.904zM888 112c13.312 0 24 10.688 24 24s-10.688 24-24 24a23.936 23.936 0 0 1-24-24c0-13.312 10.688-24 24-24z m-752 800a23.936 23.936 0 0 1-24-24c0-13.312 10.688-24 24-24s24 10.688 24 24-10.688 24-24 24z m0-752a23.936 23.936 0 0 1-24-24c0-13.312 10.688-24 24-24s24 10.688 24 24-10.688 24-24 24z m704 680H184V184h656v656z m48 72a23.936 23.936 0 0 1-24-24c0-13.312 10.688-24 24-24s24 10.688 24 24-10.688 24-24 24zM288 473.984h448c8.8 0 16-7.168 16-16v-176c0-8.768-7.2-16-16-16H288c-8.8 0-16 7.232-16 16v176c0 8.832 7.2 16 16 16z m56-136h336v64h-336v-64zM288 758.016h448c8.8 0 16-7.232 16-16v-176c0-8.8-7.2-16-16-16H288c-8.8 0-16 7.2-16 16v176c0 8.768 7.2 16 16 16z m56-136h336v64h-336v-64z" fill="#ffffff" p-id="17483"></path></svg>