<?xml version="1.0" standalone="no"?><!DOCTYPE svg PUBLIC "-//W3C//DTD SVG 1.1//EN" "http://www.w3.org/Graphics/SVG/1.1/DTD/svg11.dtd"><svg t="1718771930730" class="icon" viewBox="0 0 1024 1024" version="1.1" xmlns="http://www.w3.org/2000/svg" p-id="8446" xmlns:xlink="http://www.w3.org/1999/xlink" width="200" height="200"><path d="M512 34.133333C248.149333 34.133333 34.133333 248.149333 34.133333 512s214.016 477.866667 477.866667 477.866667 477.866667-214.016 477.866667-477.866667S775.850667 34.133333 512 34.133333z m-115.882667 359.765334l86.528-146.090667c6.144-10.410667 17.237333-16.725333 29.354667-16.725333s23.210667 6.314667 29.354667 16.725333l86.528 146.090667a34.167467 34.167467 0 0 1-29.354667 51.541333c-11.605333 0-23.04-5.973333-29.354667-16.725333L512 332.117333l-57.173333 96.597334c-9.557333 16.213333-30.549333 21.504-46.762667 11.946666a34.048 34.048 0 0 1-11.946667-46.762666z m47.957334 307.712l-169.813334 1.877333h-0.341333a34.218667 34.218667 0 0 1-29.696-51.2l86.528-150.016c9.386667-16.384 30.208-22.016 46.592-12.458667 16.384 9.386667 21.845333 30.378667 12.458667 46.592l-56.661334 98.133334 109.909334-1.194667h0.341333c18.602667 0 33.962667 15.018667 34.133333 33.792 0.512 18.944-14.506667 34.304-33.450666 34.474667z m-7.850667-137.216c-18.773333 0-34.133333-15.36-34.133333-34.133334s15.36-34.133333 34.133333-34.133333h149.674667c18.773333 0 34.133333 15.36 34.133333 34.133333s-15.36 34.133333-34.133333 34.133334h-149.674667z m343.552 123.562666c-6.144 10.581333-17.408 17.237333-29.696 17.237334H577.024c-18.773333 0-34.133333-15.36-34.133333-34.133334s15.36-34.133333 34.133333-34.133333h113.322667l-56.149334-94.549333c-9.557333-16.213333-4.266667-37.205333 11.946667-46.762667s37.205333-4.266667 46.762667 11.946667l86.528 146.090666c6.314667 10.581333 6.485333 23.722667 0.341333 34.304z" fill="#ffffff" p-id="8447"></path></svg>