<?xml version="1.0" standalone="no"?><!DOCTYPE svg PUBLIC "-//W3C//DTD SVG 1.1//EN" "http://www.w3.org/Graphics/SVG/1.1/DTD/svg11.dtd"><svg t="1706586829465" class="icon" viewBox="0 0 1024 1024" version="1.1" xmlns="http://www.w3.org/2000/svg" p-id="6137" xmlns:xlink="http://www.w3.org/1999/xlink" width="200" height="200"><path d="M708.67968 575.16544c-12.6464 6.15424-21.6064 16.85504-25.86624 29.17376l-0.00512 0c-7.20896 20.75136-22.31808 38.76352-43.63776 49.13664-18.39616 8.94464-46.17216 9.3952-66.60608 4.80256 3.82976 32.25088-0.49152 77.8496 15.36512 95.21664 19.27168 21.11488 71.13728 14.22336 113.36192 24.7808 42.21952 10.55744 78.47936 35.33824 90.41408 27.53536 11.9296-7.79776 11.9296-41.28768 11.9296-69.2992 0-37.67808-23.63904-115.00032-40.69376-162.97472-3.52256 1.21856-7.22944 1.24928-10.62912 0.256l-0.01024 0.03584C739.97312 569.55904 721.3312 569.01632 708.67968 575.16544z" fill="#ffffff" p-id="6138"></path><path d="M389.6576 392.75008c-21.51936 0-64.5376 66.32448-101.1456 143.83616 17.6128-2.5344 37.53984-0.74752 53.47328 7.00416 21.31968 10.368 36.4288 28.38528 43.64288 49.13664l0 0c4.25984 12.32384 13.21984 23.02464 25.86624 29.17376 12.65152 6.15424 36.75648 4.8384 49.0752 0.57856l0.01024 0.03072c1.36192-0.48128 2.78528-0.78848 4.23424-0.9216 2.3808-10.17856 4.90496-19.52256 7.15776-26.1376 6.8864-20.19328-6.19008-43.02848-7.73632-59.50464C462.17728 513.91488 413.29664 392.75008 389.6576 392.75008z" fill="#ffffff" p-id="6139"></path><path d="M396.14464 653.47584c-21.31968-10.368-36.4288-28.38528-43.64288-49.13664l0 0c-4.25984-12.31872-13.21984-23.01952-25.87136-29.17376-12.6464-6.14912-31.28832-5.6064-43.61728-1.34656l-0.01024-0.03584c-3.52256 1.02912-7.3728 0.96256-11.01312-0.384-24.4736 57.45152-43.35104 116.25984-46.17728 155.76064-1.95584 27.36128-6.42048 60.58496 16.98304 67.93216 23.40864 7.34208 75.1872-23.7568 112.44544-35.11296 37.632-11.47392 76.1856-3.44064 91.79136-18.1248 15.60064-14.68416 7.80288-47.72864 8.26368-65.17248 0.12288-4.736 0.90624-11.54048 2.10944-19.34848C437.66784 662.72256 412.97408 661.66272 396.14464 653.47584z" fill="#ffffff" p-id="6140"></path><path d="M512.72192 5.40672c-281.27744 0-509.29664 228.0192-509.29664 509.29664 0 281.28256 228.0192 509.30176 509.29664 509.30176 281.28256 0 509.30176-228.0192 509.30176-509.30176C1022.01856 233.42592 793.99936 5.40672 512.72192 5.40672zM798.17728 842.40896c-38.20544 0-73.30816-24.50944-114.61632-32.76288-41.30304-8.26368-104.28928-5.16608-127.01184-36.1472-22.72256-30.976-11.36128-99.12832-20.64896-125.97248-9.2928-26.84928-23.89504-58.36288-4.42368-111.69792 4.3264-11.83232-7.34208-24.54016-17.89952-26.66496-10.55744-2.13504-14.02368 13.07648-13.81888 26.66496 0.3328 21.95968 20.2496 55.64928-8.25856 109.63456-12.73856 24.12032 10.32704 108.42624-26.84928 130.10432-37.17632 21.6832-93.96736 8.26368-145.59744 33.04448s-88.80128 39.23456-112.55296 10.32704c-23.75168-28.90752-20.61312-79.22688-8.25856-132.1728 10.33728-44.29312 55.23968-181.8112 114.61632-264.34048C341.46816 382.64832 373.31968 349.25568 400.62976 358.4c45.02016 15.0784 64.11264 93.52704 73.9328 110.2592 11.47904 19.55328 18.13504-1.69984 20.49536-35.06176 2.46272-34.82624 1.16736-175.35488-0.512-194.97984-1.71008-19.97824-14.45888-38.20544-14.45888-56.79104 0-18.5856 12.63616-25.5488 15.73888-25.5488 3.0976 0 13.88032 20.38784 13.88032 20.38784s7.9616-14.49472 14.62272-18.5856c6.66112-4.096 23.6544 17.70496 29.21984 20.87936 3.70688 2.10944-21.4272 36.40832-21.632 63.2576-0.19456 26.84928-0.96768 172.3136-0.96768 181.6064 0 19.41504 10.51648 52.31104 20.42368 57.46176 7.168 3.72224 21.28384-68.56192 42.33728-92.93312 20.25472-23.44448 35.10784-28.91264 52.66432-24.7808 17.55648 4.13184 66.00704 52.40832 99.42016 100.096 58.86464 83.98336 90.87488 203.0848 90.87488 285.2352C836.67968 808.86272 836.38272 842.40896 798.17728 842.40896z" fill="#ffffff" p-id="6141"></path><path d="M634.74176 395.96032c-20.64896 0-67.89632 147.79392-75.7248 170.73152-6.18496 18.11456-1.72544 38.69184 3.7632 55.93088 3.95264-1.47968 8.17664-1.43872 11.94496-0.11264l0.01024-0.03072c12.31872 4.25984 36.42368 5.57568 49.08032-0.57856 12.65152-6.14912 21.6064-16.84992 25.86624-29.17376 7.21408-20.75136 22.3232-38.76352 43.64288-49.13664 16.53248-8.03328 37.3504-9.67168 55.42912-6.70208-0.2304-0.49664-0.45056-0.96256-0.65536-1.38752C729.4976 497.1264 660.43904 395.96032 634.74176 395.96032z" fill="#ffffff" p-id="6142"></path></svg>