<?xml version="1.0" standalone="no"?><!DOCTYPE svg PUBLIC "-//W3C//DTD SVG 1.1//EN" "http://www.w3.org/Graphics/SVG/1.1/DTD/svg11.dtd"><svg t="1711429294877" class="icon" viewBox="0 0 1024 1024" version="1.1" xmlns="http://www.w3.org/2000/svg" p-id="13485" xmlns:xlink="http://www.w3.org/1999/xlink" width="200" height="200"><path d="M459.861333 42.666667h104.277334c28.8 0 52.138667 23.338667 52.138666 52.138666h104.32q52.138667 0 52.138667 52.138667 0 52.181333-52.138667 52.181333h-104.32v52.138667H746.666667q26.069333 0 26.069333 26.069333t-26.069333 26.069334h-130.389334v52.138666h104.32q52.138667 0 52.138667 52.181334 0 52.138667-52.138667 52.138666h-104.32V512h260.778667c28.8 0 52.138667 23.338667 52.138667 52.138667h-312.917334v52.138666h312.917334v312.917334h26.026666q26.112 0 26.112 26.026666 0 26.112-26.069333 26.112H68.693333Q42.666667 981.333333 42.666667 955.264t26.069333-26.069333h26.069333v-312.917334h312.917334v-52.138666H94.805333c0-28.8 23.338667-52.138667 52.138667-52.138667h260.778667v-52.138667H303.36q-52.138667 0-52.138667-52.138666 0-52.181333 52.138667-52.181334h104.32V303.402667H277.333333q-26.069333 0-26.069333-26.069334t26.069333-26.069333h130.389334V199.125333H303.36q-52.138667 0-52.138667-52.181333 0-52.138667 52.138667-52.138667h104.32c0-28.8 23.338667-52.138667 52.138667-52.138666zM199.125333 720.597333v208.597334h625.749334v-208.64H199.125333zM303.36 772.693333h417.194667q52.138667 0 52.138666 52.138667 0 52.181333-52.138666 52.181333H303.36q-52.138667 0-52.138667-52.181333 0-52.138667 52.138667-52.138667z" p-id="13486" fill="#ffffff"></path></svg>