<?xml version="1.0" standalone="no"?><!DOCTYPE svg PUBLIC "-//W3C//DTD SVG 1.1//EN" "http://www.w3.org/Graphics/SVG/1.1/DTD/svg11.dtd"><svg t="1734675781595" class="icon" viewBox="0 0 1024 1024" version="1.1" xmlns="http://www.w3.org/2000/svg" p-id="1599" xmlns:xlink="http://www.w3.org/1999/xlink" width="200" height="200"><path d="M783.530667 774.058667a384 384 0 0 0 0-543.061334L843.861333 170.666667c183.296 183.296 183.296 480.426667 0 663.722666l-60.330666-60.330666zM240.469333 230.997333a384 384 0 0 0 0 543.061334l-60.330666 60.330666C-3.157333 651.136-3.157333 353.962667 180.138667 170.666667l60.330666 60.330666z m422.4 422.4a213.333333 213.333333 0 0 0 0-301.696l60.330667-60.373333a298.666667 298.666667 0 0 1 0 422.4l-60.373333-60.330667zM361.088 351.701333a213.333333 213.333333 0 0 0 0 301.653334L300.8 713.770667a298.666667 298.666667 0 0 1 0-422.4l60.330667 60.373333zM512 587.861333a85.333333 85.333333 0 1 0 0-170.666666 85.333333 85.333333 0 0 0 0 170.666666z" p-id="1600" fill="#e6e6e6"></path></svg>