<?xml version="1.0" standalone="no"?><!DOCTYPE svg PUBLIC "-//W3C//DTD SVG 1.1//EN" "http://www.w3.org/Graphics/SVG/1.1/DTD/svg11.dtd"><svg t="1726045693305" class="icon" viewBox="0 0 1024 1024" version="1.1" xmlns="http://www.w3.org/2000/svg" p-id="3583" xmlns:xlink="http://www.w3.org/1999/xlink" width="200" height="200"><path d="M901.850334 556.338182c-0.550989-0.912233-1.187119-1.729594-1.914473-2.55182-18.976883-21.43748-32.564292-46.885137-44.058431-73.609921-16.690218-38.861134-13.953519-74.88948-14.504508-114.841644-0.456117-31.923296-9.849686-71.691798-20.796484-101.339377-18.424678-49.983081-51.080193-90.572593-91.033574-121.953415C664.784038 82.846586 575.028806 46.086021 475.876356 46.086021 278.126094 46.086021 117.952542 191.938728 117.952542 371.905308c0 12.039045 1.734459 35.938339 1.734459 35.938339 1.36835 77.986207 26.35989 170.844248 96.958225 275.100339 0 0 0 0.094872 0.094873 0.094872 1.092247 2.185711 29.09659 44.694561 12.951278 120.946309-2.009346 9.488441-11.221685 24.630296-23.531967 38.405017-17.788547 19.793028-13.227381 50.894098 9.392353 64.943705 67.956507 42.323971 147.311064 68.407759 232.325116 72.788911l48.889617 0.090007a500.346525 500.346525 0 0 0 45.606795-4.285063c6.932972-1.003457 12.676392-5.659495 15.051847-12.315149 11.950255-33.748979 45.151894-106.812776 109.36338-106.812776h95.319854c13.041286 0 26.54477-4.379936 31.015929-5.929515 1.182254-0.456117 2.275718-0.912233 3.37283-1.548364 15.597971-9.578448 16.145311-34.936099 13.588626-55.551352-2.00448-15.964081 3.558926-31.743282 14.775745-43.326212 5.017283-5.198513 7.850071-10.580689 7.85007-15.233078v-2.009345c0-9.758463-12.406371-18.149792-30.831049-22.620951-1.188336-0.270021-1.007105-2.094487 0.271237-2.094487 9.122332 0 17.512445-2.466679 23.531968-6.476856 6.019523-4.013826 9.854551-9.578448 9.854551-15.78285v-1.639587c0-0.731003-0.094872-1.458357-0.186096-2.190576-1.092247-7.933996-1.277126-15.867992 0.456117-23.713198 5.203378-23.988084 13.503484-61.845761 15.689194-62.026992 68.68751-2.646693 54.819133-32.83553 50.35284-40.318274zM565.816467 285.06679c-23.533184 0-43.602314-13.863512-53.090755-33.747763l-121.492433 53.632014a85.932366 85.932366 0 0 1 6.019523 16.330191l29.276604-0.822227c3.468919-13.863512 16.054088-24.17418 31.015928-24.174179 17.603668 0 31.923296 14.324494 31.923297 31.928161s-14.319628 31.923296-31.923297 31.923297c-15.326734 0-28.093133-10.760703-31.195942-25.081548l-26.54477 0.727354c0.184879 2.280583 0.274886 4.651173 0.274887 7.026628 0 18.149792-5.563406 35.026106-14.866969 49.070848l82.457367 47.61614c5.378527-5.292169 12.586385-8.574992 20.611604-8.574992 16.238967 0 29.371476 13.131293 29.371476 29.371476 0 16.235318-13.132509 29.367827-29.371476 29.367827-16.235318 0-29.27782-13.132509-29.27782-29.367827 0-2.921579 0.822226-5.383392 1.639587-8.120092l-84.827956-48.979624c-16.145311 16.871449-38.585031 27.637017-63.941465 27.637017-48.709603 0-88.202003-39.496048-88.202002-88.205652 0-48.709603 39.492399-88.202003 88.202002-88.202002 29.9176 0 56.097476 14.866968 72.061557 37.577925l124.139125-55.185242c-0.636131-3.554061-1.182254-7.022979-1.182254-10.671912 0-32.46942 26.268667-58.834175 58.834175-58.834176 32.559427 0.094872 58.924182 26.364755 58.924183 58.924183 0 32.475502-26.269883 58.834175-58.834176 58.834175z" fill="#ffffff" p-id="3584"></path></svg>