<?xml version="1.0" standalone="no"?><!DOCTYPE svg PUBLIC "-//W3C//DTD SVG 1.1//EN" "http://www.w3.org/Graphics/SVG/1.1/DTD/svg11.dtd"><svg t="1713752288809" class="icon" viewBox="0 0 1024 1024" version="1.1" xmlns="http://www.w3.org/2000/svg" p-id="5034" xmlns:xlink="http://www.w3.org/1999/xlink" width="200" height="200"><path d="M938.666667 128H298.666667c-29.44 0-52.693333 14.933333-68.053334 37.546667L0 511.786667l230.613333 346.24c15.36 22.613333 41.386667 37.973333 70.826667 37.973333H938.666667c47.146667 0 85.333333-38.186667 85.333333-85.333333V213.333333c0-47.146667-38.186667-85.333333-85.333333-85.333333zM384 576c-35.413333 0-64-28.586667-64-64s28.586667-64 64-64 64 28.586667 64 64-28.586667 64-64 64z m213.333333 0c-35.413333 0-64-28.586667-64-64s28.586667-64 64-64 64 28.586667 64 64-28.586667 64-64 64z m213.333334 0c-35.413333 0-64-28.586667-64-64s28.586667-64 64-64 64 28.586667 64 64-28.586667 64-64 64z" fill="#ffffff" p-id="5035"></path></svg>