<?xml version="1.0" standalone="no"?><!DOCTYPE svg PUBLIC "-//W3C//DTD SVG 1.1//EN" "http://www.w3.org/Graphics/SVG/1.1/DTD/svg11.dtd"><svg t="1702978927789" class="icon" viewBox="0 0 1024 1024" version="1.1" xmlns="http://www.w3.org/2000/svg" p-id="6607" xmlns:xlink="http://www.w3.org/1999/xlink" width="200" height="200"><path d="M431.616 402.432c0-65.536-53.248-118.784-118.784-118.784-65.536 0-118.784 53.248-118.784 118.784s53.248 118.784 118.784 118.784c65.536 0 118.784-53.248 118.784-118.784z m-162.304 0c0-24.064 19.456-43.52 43.52-43.52s43.52 19.456 43.52 43.52-19.456 43.52-43.52 43.52-43.52-19.456-43.52-43.52z" p-id="6608" fill="#ffffff"></path><path d="M259.584 736.256l8.704 8.192c12.288 11.776 28.672 17.92 44.544 17.92 15.872 0 31.744-6.144 44.544-17.92l7.168-7.168c70.656-66.56 201.728-190.976 201.728-334.848C566.272 262.656 452.608 148.48 312.32 148.48c-139.776 0-253.952 113.664-253.952 253.952 0.512 143.36 126.464 262.656 201.216 333.824zM312.832 223.744C411.136 223.744 491.52 304.128 491.52 402.432c0 111.616-116.224 221.184-178.176 280.576l-1.536-1.536C245.76 618.496 134.656 513.536 134.656 402.432c-0.512-98.304 79.872-178.688 178.176-178.688zM641.536 338.432h293.376c20.992 0 37.376-16.896 37.376-37.376s-16.896-37.376-37.376-37.376h-293.376c-20.992 0-37.376 16.896-37.376 37.376s16.896 37.376 37.376 37.376zM935.424 531.456h-293.376c-20.992 0-37.376 16.896-37.376 37.376s16.896 37.376 37.376 37.376h293.376c20.992 0 37.376-16.896 37.376-37.376s-16.896-37.376-37.376-37.376zM935.424 800.256H88.576c-20.992 0-37.376 16.896-37.376 37.376s16.896 37.376 37.376 37.376h846.336c20.992 0 37.376-16.896 37.376-37.376s-16.384-37.376-36.864-37.376z" p-id="6609" fill="#ffffff"></path></svg>