<?xml version="1.0" standalone="no"?><!DOCTYPE svg PUBLIC "-//W3C//DTD SVG 1.1//EN" "http://www.w3.org/Graphics/SVG/1.1/DTD/svg11.dtd"><svg t="1736154002391" class="icon" viewBox="0 0 1024 1024" version="1.1" xmlns="http://www.w3.org/2000/svg" p-id="12140" xmlns:xlink="http://www.w3.org/1999/xlink" width="200" height="200"><path d="M426.666667 972.8H384c-230.4 0-332.8-98.133333-332.8-332.8V384c0-230.4 98.133333-332.8 332.8-332.8h256c230.4 0 332.8 98.133333 332.8 332.8v85.333333c0 17.066667-12.8 34.133333-34.133333 34.133334s-34.133333-12.8-34.133334-34.133334V384c0-196.266667-68.266667-268.8-268.8-268.8H384C187.733333 119.466667 119.466667 187.733333 119.466667 384v256c0 196.266667 68.266667 268.8 268.8 268.8h42.666666c17.066667 0 34.133333 12.8 34.133334 34.133333s-21.333333 29.866667-38.4 29.866667z" fill="#ffffff" p-id="12141"></path><path d="M938.666667 396.8H85.333333c-17.066667 0-34.133333-12.8-34.133333-34.133333s17.066667-29.866667 34.133333-29.866667h853.333334c17.066667 0 34.133333 12.8 34.133333 34.133333s-17.066667 29.866667-34.133333 29.866667zM512 695.466667H85.333333c-17.066667 0-34.133333-12.8-34.133333-34.133334s12.8-34.133333 34.133333-34.133333h426.666667c17.066667 0 34.133333 12.8 34.133333 34.133333s-17.066667 34.133333-34.133333 34.133334z" fill="#ffffff" p-id="12142"></path><path d="M362.666667 968.533333c-17.066667 0-34.133333-12.8-34.133334-34.133333V85.333333c0-17.066667 12.8-34.133333 34.133334-34.133333s34.133333 17.066667 34.133333 34.133333v853.333334c0 17.066667-17.066667 29.866667-34.133333 29.866666zM661.333333 541.866667c-17.066667 0-34.133333-12.8-34.133333-34.133334V85.333333c0-17.066667 12.8-34.133333 34.133333-34.133333s34.133333 12.8 34.133334 34.133333v426.666667c0 17.066667-17.066667 29.866667-34.133334 29.866667zM678.4 968.533333c-21.333333 0-46.933333-8.533333-64-25.6l-68.266667-68.266666c-34.133333-34.133333-34.133333-89.6 0-128l81.066667-81.066667c12.8-12.8 34.133333-12.8 46.933333 0l149.333334 149.333333c12.8 12.8 12.8 34.133333 0 46.933334l-81.066667 81.066666c-17.066667 17.066667-38.4 25.6-64 25.6z m-25.6-230.4l-59.733333 59.733334c-8.533333 8.533333-8.533333 25.6 0 34.133333l68.266666 68.266667c8.533333 8.533333 25.6 8.533333 34.133334 0l59.733333-59.733334-102.4-102.4z" fill="#ffffff" p-id="12143"></path><path d="M802.133333 874.666667c-8.533333 0-17.066667-4.266667-21.333333-8.533334l-149.333333-149.333333c-12.8-12.8-12.8-34.133333 0-46.933333l119.466666-119.466667c34.133333-34.133333 93.866667-34.133333 128 0l68.266667 68.266667c34.133333 34.133333 34.133333 93.866667 0 128l-119.466667 119.466666c-8.533333 4.266667-17.066667 8.533333-25.6 8.533334z m-102.4-183.466667l102.4 102.4 98.133334-98.133333c8.533333-8.533333 8.533333-25.6 0-38.4l-68.266667-68.266667c-8.533333-8.533333-25.6-8.533333-34.133333 0l-98.133334 102.4z m221.866667 29.866667z" fill="#ffffff" p-id="12144"></path></svg>