<?xml version="1.0" standalone="no"?><!DOCTYPE svg PUBLIC "-//W3C//DTD SVG 1.1//EN" "http://www.w3.org/Graphics/SVG/1.1/DTD/svg11.dtd"><svg t="1745330574321" class="icon" viewBox="0 0 1024 1024" version="1.1" xmlns="http://www.w3.org/2000/svg" p-id="1464" xmlns:xlink="http://www.w3.org/1999/xlink" width="200" height="200"><path d="M512 63.5C264.3 63.5 63.5 264.3 63.5 512S264.3 960.5 512 960.5 960.5 759.7 960.5 512 759.7 63.5 512 63.5zM198 509.6h87.6c0-136.3 102.3-243.4 233.7-238.5 43.8 0 82.8 14.6 121.7 34.1L597.2 349c-24.4-9.8-53.6-19.5-82.8-19.5-92.5 0-170.4 77.9-170.4 180.1h87.6L314.8 631.3 198 509.6z m540.3-0.1c0 131.4-102.2 243.4-228.8 243.4-43.8 0-82.8-19.4-121.7-38.9l43.8-43.8c24.4 9.8 53.6 19.5 82.8 19.5 92.5 0 170.4-77.9 170.4-180.1h-92.5l116.9-121.7L826 509.5h-87.7z" p-id="1465" fill="#ffffff"></path></svg>