<?xml version="1.0" standalone="no"?><!DOCTYPE svg PUBLIC "-//W3C//DTD SVG 1.1//EN" "http://www.w3.org/Graphics/SVG/1.1/DTD/svg11.dtd"><svg t="1714210816858" class="icon" viewBox="0 0 1024 1024" version="1.1" xmlns="http://www.w3.org/2000/svg" p-id="6096" xmlns:xlink="http://www.w3.org/1999/xlink" width="200" height="200"><path d="M815.4 959.6H208.6c-79.8 0-144.5-64.7-144.5-144.5V208.3c0-79.8 64.7-144.5 144.5-144.5h606.8c79.8 0 144.5 64.7 144.5 144.5v606.8c-0.1 79.8-64.7 144.5-144.5 144.5zM613.1 771.8c0 23.9 19.4 43.3 43.3 43.3s43.3-19.4 43.3-43.3v-159H613v159z m-245.6 43.3c23.9 0 43.3-19.4 43.3-43.3v-43.3h-86.7v43.3c0.1 23.9 19.5 43.3 43.4 43.3z m43.4-563.4c0-23.9-19.4-43.3-43.3-43.3s-43.3 19.4-43.3 43.3V584H411V251.7z m14.4 361.1H309.8c-23.9 0-43.3 19.4-43.3 43.3s19.4 43.3 43.3 43.3h115.5c23.9 0 43.3-19.4 43.3-43.3 0.1-23.9-19.3-43.3-43.3-43.3z m274.5-361.1c0-23.9-19.4-43.3-43.3-43.3s-43.3 19.4-43.3 43.3v216.7h86.7V251.7z m14.5 245.6H598.8c-23.9 0-43.3 19.4-43.3 43.3s19.4 43.3 43.3 43.3h115.5c23.9 0 43.3-19.4 43.3-43.3s-19.4-43.3-43.3-43.3z" fill="#ffffff" p-id="6097"></path></svg>