<?xml version="1.0" standalone="no"?><!DOCTYPE svg PUBLIC "-//W3C//DTD SVG 1.1//EN" "http://www.w3.org/Graphics/SVG/1.1/DTD/svg11.dtd"><svg t="1702879836370" class="icon" viewBox="0 0 1024 1024" version="1.1" xmlns="http://www.w3.org/2000/svg" p-id="6157" xmlns:xlink="http://www.w3.org/1999/xlink" width="200" height="200"><path d="M302.459259 965.594074c-15.644444 0-28.34963-12.705185-28.444444-28.34963l-0.948148-224.521481L79.075556 599.703704c-13.558519-7.86963-18.204444-25.315556-10.24-38.874074 7.86963-13.558519 25.315556-18.204444 38.874074-10.24L315.733333 671.762963c8.722963 5.12 14.127407 14.411852 14.127408 24.462222l0.948148 240.82963c0.094815 15.739259-12.61037 28.539259-28.34963 28.539259z" p-id="6158" fill="#ffffff"></path><path d="M300.752593 725.048889c-9.860741 0-19.437037-5.12-24.651852-14.222222-7.86963-13.558519-3.223704-31.004444 10.429629-38.874074l210.488889-121.552593c13.558519-7.86963 31.004444-3.223704 38.874074 10.42963 7.86963 13.558519 3.223704 31.004444-10.429629 38.874074l-210.488889 121.552592c-4.456296 2.56-9.386667 3.792593-14.222222 3.792593zM721.445926 725.048889c-9.860741 0-19.437037-5.12-24.651852-14.222222-7.86963-13.558519-3.223704-31.004444 10.42963-38.874074L920.651852 548.788148c13.558519-7.86963 31.004444-3.223704 38.874074 10.42963 7.86963 13.558519 3.223704 31.004444-10.42963 38.874074L735.668148 721.256296c-4.456296 2.56-9.386667 3.792593-14.222222 3.792593z" p-id="6159" fill="#ffffff"></path><path d="M723.247407 968.059259c-15.739259 0-28.444444-12.705185-28.444444-28.444444V713.007407l-196.266667-113.303703c-13.558519-7.86963-18.299259-25.220741-10.429629-38.874074 7.86963-13.558519 25.220741-18.299259 38.874074-10.42963l210.488889 121.552593c8.817778 5.12 14.222222 14.506667 14.222222 24.651851V939.614815c0 15.739259-12.705185 28.444444-28.444445 28.444444z" p-id="6160" fill="#ffffff"></path><path d="M513.991111 600.272593c-15.739259 0-28.444444-12.705185-28.444444-28.444445v-226.607407l-196.266667-113.303704c-13.558519-7.86963-18.299259-25.220741-10.42963-38.874074s25.220741-18.299259 38.874074-10.42963l210.488889 121.552593c8.817778 5.12 14.222222 14.506667 14.222223 24.651852v243.01037c0 15.739259-12.8 28.444444-28.444445 28.444445z" p-id="6161" fill="#ffffff"></path><path d="M513.991111 357.262222c-9.955556 0-19.531852-5.214815-24.746667-14.411852-7.774815-13.653333-2.939259-31.004444 10.808889-38.779259L707.602963 186.785185c13.653333-7.774815 31.004444-2.939259 38.779259 10.808889s2.939259 31.004444-10.808889 38.779259l-207.644444 117.191111c-4.361481 2.465185-9.197037 3.697778-13.937778 3.697778z" p-id="6162" fill="#ffffff"></path><path d="M511.241481 602.737778c-4.93037 0-9.860741-1.232593-14.222222-3.792593l-210.488889-121.552592c-8.817778-5.12-14.222222-14.506667-14.222222-24.651852V209.73037c0-10.145185 5.404444-19.531852 14.222222-24.651851L497.019259 63.525926c8.817778-5.12 19.626667-5.12 28.444445 0l210.488889 121.552593c8.817778 5.12 14.222222 14.506667 14.222222 24.651851v243.010371c0 10.145185-5.404444 19.531852-14.222222 24.651852l-210.488889 121.552592c-4.456296 2.56-9.291852 3.792593-14.222223 3.792593z m-182.044444-166.4l182.044444 105.054815 182.044445-105.054815V226.228148l-182.044445-105.054815-182.044444 105.054815v210.10963z" p-id="6163" fill="#ffffff"></path><path d="M724.385185 965.878519c-4.93037 0-9.860741-1.232593-14.222222-3.792593L499.674074 840.533333c-8.817778-5.12-14.222222-14.506667-14.222222-24.651852V572.871111c0-10.145185 5.404444-19.531852 14.222222-24.651852L710.162963 426.666667c8.817778-5.12 19.626667-5.12 28.444444 0l210.488889 121.552592c8.817778 5.12 14.222222 14.506667 14.222223 24.651852v243.01037c0 10.145185-5.404444 19.531852-14.222223 24.651852l-210.488889 121.552593c-4.361481 2.465185-9.291852 3.792593-14.222222 3.792593zM542.435556 799.478519L724.385185 904.533333l182.044445-105.054814V589.274074L724.385185 484.219259 542.340741 589.274074v210.204445z" p-id="6164" fill="#ffffff"></path><path d="M303.502222 969.007407c-4.93037 0-9.860741-1.232593-14.222222-3.792592l-210.488889-121.552593c-8.817778-5.12-14.222222-14.506667-14.222222-24.651852V576c0-10.145185 5.404444-19.531852 14.222222-24.651852l210.488889-121.552592c8.817778-5.12 19.626667-5.12 28.444444 0l210.488889 121.552592c8.817778 5.12 14.222222 14.506667 14.222223 24.651852v243.01037c0 10.145185-5.404444 19.531852-14.222223 24.651852l-210.488889 121.552593c-4.456296 2.56-9.291852 3.792593-14.222222 3.792592z m-182.044444-166.4l182.044444 105.054815 182.044445-105.054815V592.497778L303.502222 487.348148l-182.044444 105.054815v210.204444zM460.325926 440.13037c-12.61037 0-22.755556-10.145185-22.755556-22.755555V302.554074c0-12.61037 10.145185-22.755556 22.755556-22.755555s22.755556 10.145185 22.755555 22.755555v114.820741c0 12.61037-10.24 22.755556-22.755555 22.755555zM360.865185 381.345185c-12.61037 0-22.755556-10.145185-22.755555-22.755555v-114.725926c0-12.61037 10.145185-22.755556 22.755555-22.755556s22.755556 10.145185 22.755556 22.755556v114.82074c0 12.515556-10.145185 22.660741-22.755556 22.660741z" p-id="6165" fill="#ffffff"></path><path d="M460.325926 440.13037c-3.887407 0-7.774815-0.948148-11.377778-3.034074l-99.460741-57.362963c-10.903704-6.257778-14.601481-20.195556-8.343703-31.099259 6.257778-10.903704 20.195556-14.601481 31.099259-8.343704l99.460741 57.362963c10.903704 6.257778 14.601481 20.195556 8.343703 31.09926-4.266667 7.300741-11.851852 11.377778-19.721481 11.377777zM247.087407 806.4c-12.61037 0-22.755556-10.145185-22.755555-22.755556V668.823704c0-12.61037 10.145185-22.755556 22.755555-22.755556s22.755556 10.145185 22.755556 22.755556v114.82074c0 12.61037-10.145185 22.755556-22.755556 22.755556zM147.721481 747.614815c-12.61037 0-22.755556-10.145185-22.755555-22.755556V610.038519c0-12.61037 10.145185-22.755556 22.755555-22.755556s22.755556 10.145185 22.755556 22.755556v114.82074c0 12.61037-10.24 22.755556-22.755556 22.755556z" p-id="6166" fill="#ffffff"></path><path d="M247.087407 806.4c-3.887407 0-7.774815-0.948148-11.377777-3.034074l-99.460741-57.362963c-10.903704-6.257778-14.601481-20.195556-8.343704-31.099259 6.257778-10.903704 20.195556-14.601481 31.099259-8.343704l99.460741 57.362963c10.903704 6.257778 14.601481 20.195556 8.343704 31.099259-4.171852 7.300741-11.851852 11.377778-19.721482 11.377778zM668.065185 806.4c-12.61037 0-22.755556-10.145185-22.755555-22.755556V668.823704c0-12.61037 10.145185-22.755556 22.755555-22.755556s22.755556 10.145185 22.755556 22.755556v114.82074c0 12.61037-10.24 22.755556-22.755556 22.755556zM568.604444 747.614815c-12.61037 0-22.755556-10.145185-22.755555-22.755556V610.038519c0-12.61037 10.145185-22.755556 22.755555-22.755556s22.755556 10.145185 22.755556 22.755556v114.82074c0 12.61037-10.145185 22.755556-22.755556 22.755556z" p-id="6167" fill="#ffffff"></path><path d="M667.97037 806.4c-3.887407 0-7.774815-0.948148-11.377777-3.034074l-99.460741-57.362963c-10.903704-6.257778-14.601481-20.195556-8.343704-31.099259 6.257778-10.903704 20.195556-14.601481 31.099259-8.343704l99.460741 57.362963c10.903704 6.257778 14.601481 20.195556 8.343704 31.099259-4.171852 7.300741-11.851852 11.377778-19.721482 11.377778z" p-id="6168" fill="#ffffff"></path></svg>