<?xml version="1.0" standalone="no"?><!DOCTYPE svg PUBLIC "-//W3C//DTD SVG 1.1//EN" "http://www.w3.org/Graphics/SVG/1.1/DTD/svg11.dtd"><svg t="1701485320877" class="icon" viewBox="0 0 1024 1024" version="1.1" xmlns="http://www.w3.org/2000/svg" p-id="8147" xmlns:xlink="http://www.w3.org/1999/xlink" width="200" height="200"><path d="M744.106667 1.706667H186.026667C153.6 1.706667 121.173333 15.36 97.28 37.546667 73.386667 61.44 59.733333 93.866667 61.44 126.293333v684.373334c0 32.426667 13.653333 64.853333 35.84 88.746666 23.893333 23.893333 54.613333 35.84 88.746667 35.84h279.893333v-61.44H186.026667c-34.133333 0-63.146667-27.306667-63.146667-63.146666V126.293333c0-34.133333 27.306667-63.146667 63.146667-63.146666h559.786666c17.066667 0 32.426667 6.826667 44.373334 18.773333 11.946667 11.946667 18.773333 27.306667 18.773333 44.373333v373.76H870.4V126.293333c0-32.426667-13.653333-64.853333-35.84-88.746666C808.96 15.36 778.24 1.706667 744.106667 1.706667z m0 0" p-id="8148" fill="#ffffff"></path><path d="M604.16 187.733333H259.413333c-17.066667 0-30.72 13.653333-30.72 30.72v3.413334c0 17.066667 13.653333 29.013333 30.72 29.013333h56.32v344.746667c0 71.68 52.906667 131.413333 116.053334 131.413333 64.853333 0 116.053333-59.733333 116.053333-131.413333V250.88h56.32c17.066667 0 30.72-13.653333 30.72-29.013333v-5.12c0-15.36-13.653333-29.013333-30.72-29.013334zM389.12 532.48c0-6.826667 5.12-11.946667 11.946667-11.946667 6.826667 0 11.946667 5.12 11.946666 11.946667s-5.12 11.946667-11.946666 11.946667c-6.826667 0-11.946667-5.12-11.946667-11.946667z m22.186667-59.733333c0-11.946667 8.533333-20.48 20.48-20.48s20.48 8.533333 20.48 20.48-8.533333 20.48-20.48 20.48c-10.24 0-20.48-10.24-20.48-20.48z m8.533333 138.24c-6.826667 0-11.946667-5.12-11.946667-11.946667s5.12-11.946667 11.946667-11.946667c6.826667 0 11.946667 5.12 11.946667 11.946667s-6.826667 11.946667-11.946667 11.946667z m23.893333-39.253334c-6.826667 0-11.946667-5.12-11.946666-11.946666 0-6.826667 5.12-11.946667 11.946666-11.946667 6.826667 0 11.946667 5.12 11.946667 11.946667 0 5.12-5.12 11.946667-11.946667 11.946666z m17.066667-40.96c-8.533333 0-15.36-6.826667-15.36-15.36s6.826667-15.36 15.36-15.36 15.36 6.826667 15.36 15.36-6.826667 15.36-15.36 15.36z m18.773333-150.186666h-97.28v-129.706667h97.28v129.706667z" p-id="8149" fill="#ffffff"></path><path d="M759.466667 616.106667c-112.64 0-203.093333 90.453333-203.093334 203.093333 0 112.64 90.453333 203.093333 203.093334 203.093333 112.64 0 203.093333-90.453333 203.093333-203.093333 0-112.64-90.453333-203.093333-203.093333-203.093333z m100.693333 153.6c-32.426667 42.666667-63.146667 85.333333-95.573333 129.706666-6.826667 8.533333-22.186667 15.36-32.426667 8.533334-22.186667-15.36-46.08-32.426667-68.266667-47.786667-10.24-6.826667-15.36-18.773333-8.533333-30.72 6.826667-10.24 22.186667-15.36 32.426667-8.533333 22.186667 15.36 51.2 35.84 51.2 35.84 27.306667-35.84 52.906667-71.68 80.213333-109.226667 17.066667-23.893333 58.026667-1.706667 40.96 22.186667z m0 0" p-id="8150" fill="#ffffff"></path></svg>