<?xml version="1.0" standalone="no"?><!DOCTYPE svg PUBLIC "-//W3C//DTD SVG 1.1//EN" "http://www.w3.org/Graphics/SVG/1.1/DTD/svg11.dtd"><svg t="1717656214823" class="icon" viewBox="0 0 1097 1024" version="1.1" xmlns="http://www.w3.org/2000/svg" p-id="8330" xmlns:xlink="http://www.w3.org/1999/xlink" width="214.2578125" height="200"><path d="M1092.210178 40.248242v227.720314h-94.53041V101.679768H848.920149V5.242863h208.28465a34.052131 34.052131 0 0 1 35.005379 35.005379z m5.295821 735.11295v208.28465a34.793546 34.793546 0 0 1-33.257757 35.005379h-213.580472v-94.477452h157.550683v-148.812577h89.287546z m-842.035581 157.550682v91.035168l-217.128672-1.747621a35.534961 35.534961 0 0 1-36.753-35.005379V929.416632l1.747621-157.550682h98.025652l-1.747621 155.750103 155.750103 5.295821zM272.999586 0v103.268515H101.520894v164.541166H0v-227.720314A38.871328 38.871328 0 0 1 38.500621 1.588746h234.551923z m428.961523 728.122466h-402.482416a43.319818 43.319818 0 0 1-43.743484-43.743484V365.994208a43.319818 43.319818 0 0 1 43.743484-43.743484h402.482416a43.319818 43.319818 0 0 1 43.743483 43.743484v318.543649a44.484899 44.484899 0 0 1-43.743483 43.743484z" fill="#ffffff" p-id="8331"></path><path d="M899.654117 325.534133c5.295821-3.495242 15.887464 0 15.887463 6.990484v353.549028c0 6.990484-8.738105 10.591643-15.887463 6.990484l-118.997104-87.539925-126.040546-91.035168a6.725693 6.725693 0 0 1 0-12.233347l126.040546-91.035168z" fill="#ffffff" p-id="8332"></path></svg>