<?xml version="1.0" standalone="no"?><!DOCTYPE svg PUBLIC "-//W3C//DTD SVG 1.1//EN" "http://www.w3.org/Graphics/SVG/1.1/DTD/svg11.dtd"><svg t="1739426727403" class="icon" viewBox="0 0 1029 1024" version="1.1" xmlns="http://www.w3.org/2000/svg" p-id="3259" xmlns:xlink="http://www.w3.org/1999/xlink" width="200.9765625" height="200"><path d="M1002.99264 299.29984h-72.05888V196.4288c0-28.30336-23.18848-51.49184-51.49184-51.49184H467.97312V93.45024c0-15.45728-10.3424-25.69216-25.69216-25.69216H30.81216C15.35488 67.7632 5.12 78.10048 5.12 93.45024V839.3216c0 28.30336 23.18336 51.49184 51.48672 51.49184h334.08l-45.60896-51.3792H64.22528l115.71712-488.64768h797.25056l-50.72384 214.44608 44.5184 30.1568 57.69728-265.17504c2.6112-15.45728-7.7312-30.91456-25.69216-30.91456z m-123.43808 0H174.82752c-23.18336 0-46.26432 17.96096-51.48672 41.14944l-66.83648 313.8304V119.24992h360.09472v77.17888h462.96064v102.87104z" fill="#ffffff" p-id="3260"></path><path d="M694.0672 648.71936c-56.82688 0-102.87104 47.0272-102.87104 105.15456 0 58.01984 46.04416 105.15456 102.87104 105.15456 56.82176 0 102.7584-47.13472 102.7584-105.15456s-45.94176-105.15456-102.7584-105.15456z" fill="#ffffff" p-id="3261"></path><path d="M694.0672 552.17152c-191.2576 0-335.05792 135.08608-335.05792 201.92256 0 66.72384 143.14496 202.14272 335.05792 202.14272 196.92032 0 335.0528-137.59488 335.0528-202.14272 0-66.8416-136.61696-201.92256-335.0528-201.92256z m0.32256 367.16544c-89.14944 0-161.42848-73.91232-161.42848-165.13024 0-91.22304 72.27904-165.13536 161.42848-165.13536 89.15456 0 161.4336 73.91232 161.4336 165.13536 0 91.1104-72.27904 165.13024-161.4336 165.13024z" fill="#ffffff" p-id="3262"></path></svg>