<?xml version="1.0" standalone="no"?><!DOCTYPE svg PUBLIC "-//W3C//DTD SVG 1.1//EN" "http://www.w3.org/Graphics/SVG/1.1/DTD/svg11.dtd"><svg t="1719378530125" class="icon" viewBox="0 0 1024 1024" version="1.1" xmlns="http://www.w3.org/2000/svg" p-id="14722" xmlns:xlink="http://www.w3.org/1999/xlink" width="200" height="200"><path d="M238.933333 643.657143l58.514286 53.638095 146.285714-146.285714-146.285714-146.285714-58.514286 53.638095 43.885715 43.885714H19.504762v97.52381h263.314286z" p-id="14723" fill="#ffffff"></path><path d="M117.028571 331.580952h789.942858v151.161905h97.523809V234.057143h-209.67619V92.647619H19.504762v316.952381h97.523809V331.580952z m0-141.409523h580.266667v43.885714H117.028571v-43.885714zM117.028571 697.295238h-97.523809v234.057143h531.504762v-97.52381H117.028571zM780.190476 487.619048c-121.904762 0-224.304762 97.52381-224.304762 224.304762 0 121.904762 97.52381 224.304762 224.304762 224.304761s224.304762-97.52381 224.304762-224.304761c0-121.904762-97.52381-224.304762-224.304762-224.304762z m0 365.714285c-78.019048 0-146.285714-63.390476-146.285714-146.285714 0-78.019048 63.390476-146.285714 146.285714-146.285714s146.285714 63.390476 146.285714 146.285714-63.390476 146.285714-146.285714 146.285714z" p-id="14724" fill="#ffffff"></path><path d="M804.571429 609.52381h-78.019048v156.038095h175.542857v-78.019048h-97.523809z" p-id="14725" fill="#ffffff"></path></svg>