<?xml version="1.0" standalone="no"?><!DOCTYPE svg PUBLIC "-//W3C//DTD SVG 1.1//EN" "http://www.w3.org/Graphics/SVG/1.1/DTD/svg11.dtd"><svg t="1719415171103" class="icon" viewBox="0 0 1024 1024" version="1.1" xmlns="http://www.w3.org/2000/svg" p-id="13653" xmlns:xlink="http://www.w3.org/1999/xlink" width="200" height="200"><path d="M319.112533 147.490133h200.465067l242.449067 250.845867v267.639467h41.984c8.3968 0 15.735467 3.140267 22.050133 9.454933 6.314667 6.280533 9.454933 13.653333 9.454933 22.050133s-3.140267 15.735467-9.454933 22.050134a30.344533 30.344533 0 0 1-22.050133 9.454933h-41.984v109.1584l207.803733 2.082133V275.524267L735.778133 34.133333H319.112533v113.3568z m569.890134 128.034134h-144.827734V117.0432l144.827734 158.481067z" p-id="13654" fill="#ffffff"></path><path d="M484.932267 183.159467H68.266667v798.72l650.717866 7.338666V424.5504l-234.052266-241.390933z m-100.7616 121.7536c8.3968 0 15.735467 3.140267 22.050133 9.454933a30.344533 30.344533 0 0 1 0 44.100267 30.208 30.208 0 0 1-22.050133 9.454933H247.739733v447.112533h305.425067c8.3968 0 15.735467 3.140267 22.050133 9.454934 6.314667 6.280533 9.454933 13.653333 9.454934 22.050133s-3.140267 15.735467-9.454934 22.050133a30.276267 30.276267 0 0 1-22.050133 9.454934h-336.896a30.208 30.208 0 0 1-22.050133-9.454934 30.208 30.208 0 0 1-9.454934-22.050133V336.418133c0-8.3968 3.140267-15.735467 9.454934-22.050133a30.344533 30.344533 0 0 1 22.050133-9.454933h167.901867z m253.986133 119.637333h-144.827733V266.069333l144.827733 158.481067z" p-id="13655" fill="#ffffff"></path></svg>