<?xml version="1.0" standalone="no"?><!DOCTYPE svg PUBLIC "-//W3C//DTD SVG 1.1//EN" "http://www.w3.org/Graphics/SVG/1.1/DTD/svg11.dtd"><svg t="1713521859441" class="icon" viewBox="0 0 1024 1024" version="1.1" xmlns="http://www.w3.org/2000/svg" p-id="13569" xmlns:xlink="http://www.w3.org/1999/xlink" width="200" height="200"><path d="M872 112c22.091 0 40 17.909 40 40v720c0 22.091-17.909 40-40 40H152c-22.091 0-40-17.909-40-40V152c0-22.091 17.909-40 40-40h720zM457 572H265c-17.673 0-32 14.327-32 32 0 17.496 14.042 31.713 31.47 31.996l0.53 0.004h118.751L243.368 786.543l-0.512 0.562a32.172 32.172 0 0 0-3.525 4.785A31.858 31.858 0 0 0 233 811c0 17.496 14.042 31.713 31.47 31.996l0.53 0.004h192c17.673 0 32-14.327 32-32 0-17.496-14.042-31.713-31.47-31.996L457 779H337.91l141.178-151.394 0.471-0.516a32.227 32.227 0 0 0 2.546-3.245A31.864 31.864 0 0 0 489 604c0-17.496-14.042-31.713-31.47-31.996L457 572z m208.514-390c-5.323 0-10.343 1.3-14.759 3.6a31.873 31.873 0 0 0-9.97 6.967l-0.436 0.46-92.752 99.463-0.358 0.39c-11.563 12.81-10.874 32.506 1.557 44.477l0.38 0.36 0.39 0.358c12.81 11.563 32.506 10.874 44.477-1.557l0.36-0.38 39.11-41.94 0.001 516.802c0 17.673 14.327 32 32 32a31.9 31.9 0 0 0 12.97-2.737 31.863 31.863 0 0 0 10.636-7.264l0.421-0.443 92.752-99.464 0.358-0.39c11.563-12.81 10.874-32.506-1.557-44.477l-0.38-0.36-0.39-0.358c-12.81-11.563-32.506-10.874-44.477 1.557l-0.36 0.38-37.974 40.721 0.001-516.165c0-17.673-14.327-32-32-32zM390.65 202.568c-6.227-16.281-24.389-24.614-40.83-18.63a31.85 31.85 0 0 0-14.536 10.706l-0.332 0.446a31.956 31.956 0 0 0-4.358 7.81l-0.232 0.618-95.423 262.174c-6.045 16.607 2.518 34.97 19.125 41.015 16.441 5.984 34.603-2.349 40.83-18.63l0.185-0.496 15.025-41.281c1.192 0.162 2.404 0.26 3.633 0.287l0.74 0.009 96.888-0.001 14.753 40.533 0.185 0.495c6.227 16.282 24.389 24.614 40.83 18.63 16.441-5.984 24.998-24.041 19.302-40.516l-0.177-0.499-95.423-262.174-0.185-0.496zM360.68 307.34l27.39 75.255H333.29l27.391-75.255z" fill="#ffffff" p-id="13570"></path></svg>