<?xml version="1.0" standalone="no"?><!DOCTYPE svg PUBLIC "-//W3C//DTD SVG 1.1//EN" "http://www.w3.org/Graphics/SVG/1.1/DTD/svg11.dtd"><svg t="1714458796417" class="icon" viewBox="0 0 1024 1024" version="1.1" xmlns="http://www.w3.org/2000/svg" p-id="14054" xmlns:xlink="http://www.w3.org/1999/xlink" width="200" height="200"><path d="M650.944 96.384a32 32 0 0 1 31.36 13.824l272.256 406.592a32 32 0 0 1 3.712 28.16c-46.144 134.016-100.928 201.856-169.6 222.848-33.728 10.24-67.136 7.936-98.176 1.024-28.736-6.4-57.664-17.28-84.416-27.328l-5.12-1.92c-59.52-22.336-108.16-38.4-154.944-24.064-45.056 13.888-98.56 60.16-154.112 192.832a32 32 0 0 1-59.392-0.96l-166.4-436.672a32 32 0 0 1 2.432-27.84C128 343.04 189.184 294.08 252.608 275.2c59.392-17.664 115.84-6.912 161.28 1.728l5.632 1.088c49.664 9.408 83.008 13.888 112.256-1.28 28.736-14.912 62.08-53.952 93.312-157.952a32 32 0 0 1 25.856-22.4z m13.952 102.784c-28.416 70.4-62.08 112.768-103.68 134.336-51.456 26.688-106.752 16.256-152.256 7.68l-2.176-0.448c-48.832-9.216-91.648-17.344-135.936-4.16-40.832 12.16-88 44.352-139.328 126.016l133.952 351.616c49.088-92.608 102.4-141.632 161.728-159.872 70.72-21.76 140.096 4.288 195.84 25.216l0.448 0.128 3.712 1.408c28.032 10.56 52.992 19.904 77.184 25.28 24.832 5.504 46.08 6.144 65.6 0.192 36.224-11.072 79.552-49.6 122.496-167.488l-227.584-339.84z" fill="#ffffff" p-id="14055"></path><path d="M149.504 371.968a16 16 0 0 1 22.528 1.536L160 384l12.032-10.496 0.192 0.192 0.448 0.448 1.664 1.92 6.208 7.36a1444.544 1444.544 0 0 1 88.768 118.08c24.256 36.16 48.768 76.8 67.2 117.12 18.368 39.936 31.488 80.96 31.488 117.376a16 16 0 1 1-32 0c0-29.632-10.88-65.6-28.544-104.064a830.4 830.4 0 0 0-64.768-112.576 1412.416 1412.416 0 0 0-92.672-122.432l-1.536-1.856-0.448-0.448-0.064-0.064M408.064 306.112a16 16 0 0 1 21.824 5.952L416 320l13.888-7.936 0.128 0.192 0.256 0.512 1.152 1.92a976.192 976.192 0 0 1 18.752 34.944c12.16 23.232 28.288 55.552 44.416 91.968 32 71.936 65.408 162.752 65.408 230.4a16 16 0 1 1-32 0c0-60.096-30.592-145.28-62.592-217.408a1629.184 1629.184 0 0 0-61.952-124.224l-1.024-1.856-0.256-0.448v-0.128M566.4 275.2a16 16 0 0 1 22.4 3.2l13.248 17.6c44.096 58.688 91.008 121.088 129.6 185.344 42.56 70.784 75.84 145.088 84.224 220.864a16 16 0 0 1-31.744 3.584c-7.68-69.248-38.4-138.88-79.872-207.936-37.76-62.72-83.648-123.84-127.872-182.72L563.2 297.6a16 16 0 0 1 3.2-22.4z" fill="#ffffff" p-id="14056"></path><path d="M870.464 433.344a16 16 0 0 1 8.192 21.12c-46.272 104.576-100.48 152.832-161.024 169.408-56.32 15.36-115.2 2.048-169.408-10.24l-7.168-1.664c-58.048-13.12-110.912-23.68-160.384-6.72-48.384 16.64-97.28 61.248-141.888 168.896a16 16 0 0 1-29.568-12.288c46.464-112 100.48-166.08 161.024-186.88 59.392-20.416 121.216-7.04 177.92 5.76l3.968 0.96c56.96 12.8 108.608 24.576 157.056 11.328 47.936-13.12 96.128-51.968 140.16-151.488a16 16 0 0 1 21.12-8.192zM743.744 241.984a16 16 0 0 1 6.272 21.76c-46.4 83.712-97.792 125.44-152.96 144.192-53.888 18.304-109.44 13.76-161.472 9.536l-0.832-0.064c-53.376-4.352-103.36-8.32-151.68 7.232-47.424 15.232-95.168 49.984-141.312 127.552a16 16 0 0 1-27.52-16.384C163.52 453.12 216.96 412.288 273.28 394.24c54.72-17.6 110.336-13.056 162.048-8.832l2.048 0.192c53.376 4.352 102.528 8.064 149.44-7.872 45.888-15.616 91.648-50.88 135.168-129.408a16 16 0 0 1 21.76-6.272z" fill="#ffffff" p-id="14057"></path><path d="M822.016 270.464a32 32 0 0 1 19.84 40.64c-46.08 134.336-99.456 203.52-165.12 228.992-61.12 23.68-124.096 4.864-175.68-10.56a4201.408 4201.408 0 0 0-7.36-2.176c-57.408-17.024-104.32-29.12-150.336-11.52-45.184 17.28-98.304 67.328-153.792 200.448a32 32 0 0 1-59.072-24.64c57.792-138.688 120.128-208.896 190.08-235.584 68.928-26.368 136.576-6.336 190.976 9.856L512 466.048c59.008 17.472 101.952 29.76 141.696 14.4 38.08-14.72 83.136-60.16 127.744-190.08a32 32 0 0 1 40.64-19.904z" fill="#ffffff" p-id="14058"></path></svg>