<?xml version="1.0" standalone="no"?><!DOCTYPE svg PUBLIC "-//W3C//DTD SVG 1.1//EN" "http://www.w3.org/Graphics/SVG/1.1/DTD/svg11.dtd"><svg t="1703738694892" class="icon" viewBox="0 0 1024 1024" version="1.1" xmlns="http://www.w3.org/2000/svg" p-id="5168" xmlns:xlink="http://www.w3.org/1999/xlink" width="200" height="200"><path d="M863.614458 86.361446c37.012048 0 61.686747 24.674699 61.686747 61.686747v740.240964c0 37.012048-24.674699 61.686747-61.686747 61.686747H123.373494c-37.012048 0-61.686747-24.674699-61.686747-61.686747V148.048193c0-37.012048 24.674699-61.686747 61.686747-61.686747h740.240964z m6.168675 61.686747h-740.240964v740.240964h740.240964V148.048193zM524.337349 302.26506v67.855422H376.289157c-18.506024 0-30.843373 12.337349-30.843374 24.674699v154.216867H277.590361V400.963855c0-49.349398 37.012048-92.53012 86.361446-98.698795h160.385542z m185.060241 185.060241v148.048193c0 49.349398-37.012048 92.53012-86.361445 98.698795H474.987952v-67.855422H616.86747c18.506024 0 30.843373-12.337349 30.843373-24.674698V487.325301h61.686747z m-67.855421-117.204819c12.337349 12.337349 12.337349 30.843373 0 43.180723l-252.915663 252.915662c-12.337349 12.337349-30.843373 12.337349-43.180723 0-12.337349-12.337349-12.337349-30.843373 0-43.180722l252.915663-252.915663c12.337349-12.337349 37.012048-12.337349 43.180723 0z m-542.843374-61.686747v419.469879c-18.506024 0-98.698795-12.337349-98.698795-30.843373V339.277108c6.168675-12.337349 86.361446-30.843373 98.698795-30.843373z m592.192771 616.86747c0 18.506024-12.337349 98.698795-30.843373 98.698795H308.433735c-18.506024 0-30.843373-80.192771-30.843374-98.698795h413.301205z m197.397591-616.86747c18.506024 0 98.698795 12.337349 98.698795 30.843373v357.783133c0 18.506024-80.192771 30.843373-98.698795 30.843373V308.433735z m-228.240964-308.433735c18.506024 0 30.843373 80.192771 30.843373 98.698795H277.590361c0-18.506024 12.337349-98.698795 30.843374-98.698795h351.614458z" fill="#ffffff" p-id="5169"></path></svg>