<?xml version="1.0" standalone="no"?><!DOCTYPE svg PUBLIC "-//W3C//DTD SVG 1.1//EN" "http://www.w3.org/Graphics/SVG/1.1/DTD/svg11.dtd"><svg t="1715050558064" class="icon" viewBox="0 0 1347 1024" version="1.1" xmlns="http://www.w3.org/2000/svg" p-id="4612" xmlns:xlink="http://www.w3.org/1999/xlink" width="263.0859375" height="200"><path d="M563.552653 869.029792H219.70277a45.896812 45.896812 0 0 1 0-91.793623h343.849883a45.896812 45.896812 0 1 1 0 91.793623z m0-366.422085H219.70277a45.896812 45.896812 0 0 1 0-91.793623h343.849883a45.896812 45.896812 0 1 1 0 91.793623z" p-id="4613" fill="#ffffff"></path><path d="M174.558365 823.885387V136.938028a45.896812 45.896812 0 0 1 91.793623 0v686.194953a45.896812 45.896812 0 1 1-91.793623 0z" p-id="4614" fill="#ffffff"></path><path d="M713.281596 366.422085m45.896811 0l398.775576 0q45.896812 0 45.896811 45.896812l0 91.041216q0 45.896812-45.896811 45.896812l-398.775576 0q-45.896812 0-45.896811-45.896812l0-91.041216q0-45.896812 45.896811-45.896812Z" p-id="4615" fill="#ffffff"></path><path d="M0 0m45.896812 0l398.775575 0q45.896812 0 45.896812 45.896812l0 91.041216q0 45.896812-45.896812 45.896811l-398.775575 0q-45.896812 0-45.896812-45.896811l0-91.041216q0-45.896812 45.896812-45.896812Z" p-id="4616" fill="#ffffff"></path><path d="M713.281596 732.091764m45.896811 0l398.775576 0q45.896812 0 45.896811 45.896812l0 91.041216q0 45.896812-45.896811 45.896812l-398.775576 0q-45.896812 0-45.896811-45.896812l0-91.041216q0-45.896812 45.896811-45.896812Z" p-id="4617" fill="#ffffff"></path></svg>