<?xml version="1.0" standalone="no"?><!DOCTYPE svg PUBLIC "-//W3C//DTD SVG 1.1//EN" "http://www.w3.org/Graphics/SVG/1.1/DTD/svg11.dtd"><svg t="1711697447172" class="icon" viewBox="0 0 1024 1024" version="1.1" xmlns="http://www.w3.org/2000/svg" p-id="9484" xmlns:xlink="http://www.w3.org/1999/xlink" width="200" height="200"><path d="M870.4 468.114H153.6c-36.571 0-58.514-29.257-58.514-58.514s29.257-58.514 58.514-58.514h716.8c29.257 0 58.514 29.257 58.514 58.514s-21.943 58.514-58.514 58.514z m0 226.743H153.6c-29.257 0-58.514-29.257-58.514-58.514s29.257-58.514 58.514-58.514h716.8c29.257 0 58.514 29.257 58.514 58.514s-21.943 58.514-58.514 58.514zM694.857 168.23L526.63 7.314C519.314 0 504.686 0 497.37 7.314L329.143 168.23c-7.314 14.628 0 36.571 21.943 36.571h329.143c14.628 0 21.942-21.943 14.628-36.571z m0 687.542l-160.914 160.915c-7.314 7.314-21.943 7.314-29.257 0L343.77 855.77c-14.628-14.628-7.314-36.571 14.629-36.571h329.143c7.314 0 14.628 21.943 7.314 36.571z" p-id="9485" fill="#ffffff"></path></svg>