<?xml version="1.0" standalone="no"?><!DOCTYPE svg PUBLIC "-//W3C//DTD SVG 1.1//EN" "http://www.w3.org/Graphics/SVG/1.1/DTD/svg11.dtd"><svg t="1719405911948" class="icon" viewBox="0 0 1024 1024" version="1.1" xmlns="http://www.w3.org/2000/svg" p-id="7883" xmlns:xlink="http://www.w3.org/1999/xlink" width="200" height="200"><path d="M678.35 790.25a175 175 0 1 0-35.15 35.9l65.95 53.35a25 25 0 1 0 31.5-38.85l-62.3-50.4zM262 62h499.999a150 150 0 0 1 150 150v600a150 150 0 0 1-150 150H262a150 150 0 0 1-150-150V212A150 150 0 0 1 262 62z m274.999 750a125 125 0 1 1 0-250 125 125 0 0 1 0 250zM287 212a25 25 0 0 0 0 50h450a25 25 0 1 0 0-50H287z m0 200a25 25 0 0 0 0 50h450a25 25 0 1 0 0-50H287z" p-id="7884" fill="#ffffff"></path></svg>