<?xml version="1.0" standalone="no"?><!DOCTYPE svg PUBLIC "-//W3C//DTD SVG 1.1//EN" "http://www.w3.org/Graphics/SVG/1.1/DTD/svg11.dtd"><svg t="1702979100739" class="icon" viewBox="0 0 1024 1024" version="1.1" xmlns="http://www.w3.org/2000/svg" p-id="9680" xmlns:xlink="http://www.w3.org/1999/xlink" width="200" height="200"><path d="M697.290797 337.460383c0-4.607648-1.535883-9.215297-5.11961-12.799023-11.775102-12.799023-23.550203-25.086086-34.813343-37.373149-3.071766-3.071766-7.167453-5.119609-11.263141-5.63157-194.545156-17.406672-132.597883 201.200648-198.640844 234.99007 70.138648 13.310984 245.229289 11.263141 249.836938-179.186328zM478.683476 505.38357c99.832383-18.430594 168.947109-73.722375 191.985352-181.746132 0.511961-1.535883 2.047844-1.535883 2.559805-1.023922 2.559805 2.559805 5.119609 5.63157 7.679414 8.191375 1.023922 1.023922 1.535883 2.559805 1.023922 3.583726-14.334906 142.325141-97.784539 174.57868-203.248493 170.994953zM669.132945 278.584875l32.7655 35.325305c4.095687 4.095687 10.239219 4.607648 14.846867 1.535883l189.937508-138.229453c5.63157-4.095687 6.143531-11.775102 1.535883-16.894711l-71.674531-77.306102c-4.607648-5.119609-12.799023-4.607648-16.894711 0.511961l-151.028477 180.21025c-3.583727 4.095687-3.583727 10.239219 0.511961 14.846867z m36.349227 1.535883l146.932789-135.669648c4.607648-4.095687 11.775102-4.095687 15.870789 0.511961l12.287062 13.310984c4.607648 5.119609 4.095687 12.799023-1.535883 16.894711l-159.219851 122.358664c-4.607648 3.583727-11.263141 3.071766-15.358828-1.023922-3.583727-4.607648-3.583727-11.775102 1.023922-16.38275zM1015.218539 68.16893C999.34775 51.274219 977.333429 34.379508 952.247344 20.556563c-14.846867-8.191375-29.693734-14.846867-44.028641-19.454516-6.655492-2.559805-14.334906-0.511961-19.454516 4.607649l-39.932953 43.004718c-6.143531 7.167453-6.143531 17.406672 0.511961 24.574125 23.550203 25.598047 47.612367 50.684133 71.16257 76.28218 6.655492 6.655492 16.894711 7.679414 24.574125 2.047844 23.550203-18.430594 46.588445-37.885109 69.626688-57.339625 7.167453-6.655492 7.679414-18.942555 0.511961-26.110008zM216.047516 791.569734c0 19.966477 30.717656 35.837266 68.602765 35.837266s69.114727-16.38275 69.114727-35.837266-30.717656-35.837266-69.114727-35.837265c-37.885109 0-68.602766 15.870789-68.602765 35.837265zM393.186 853.005047c0 23.550203 36.861187 43.004719 82.425711 43.004719s82.425711-19.454516 82.425711-43.004719c0-23.550203-36.861187-43.004719-82.425711-43.004719s-82.425711 18.942555-82.425711 43.004719zM662.477453 818.703664c45.564523 0 82.425711-19.454516 82.425711-43.51668s-36.861187-43.51668-82.425711-43.516679-82.937672 19.454516-82.937672 43.516679 36.861187 43.51668 82.937672 43.51668zM851.903 647.19675c0-22.01432-33.789422-39.420992-75.258258-39.420992s-75.258258 17.406672-75.258258 39.420992c0 21.502359 33.789422 39.420992 75.258258 39.420992s75.258258-17.918633 75.258258-39.420992zM867.261828 522.790242c0-21.502359-33.789422-39.420992-74.746297-39.420992-41.468836 0-74.746297 17.406672-74.746297 39.420992 0 21.502359 33.789422 39.420992 74.746297 39.420992 41.468836 0 74.746297-17.918633 74.746297-39.420992z" p-id="9681" fill="#ffffff"></path><path d="M870.333594 240.187805l-41.468836 30.205695c-5.119609 3.583727-6.143531 11.263141-1.535883 15.870789 20.990398 21.502359 54.267859 61.435312 78.330023 115.703172 47.612367 106.999836 37.373148 221.167125-30.205695 339.430102l-0.511961 0.511961c-2.047844 3.071766-33.277461 55.803742-95.736695 106.999835-82.937672 68.602766-180.722211 102.904148-290.281852 102.904149-38.39707 0-78.841984-4.607648-119.798859-12.799024-1.023922 0-78.841984-17.406672-154.612203-61.947273-76.28218-45.052562-121.846703-100.344344-135.669649-164.851422-2.047844-10.239219 5.63157-19.454516 15.870789-19.454515 4.095687 0 12.799023 0.511961 24.574125 0.51196 161.267695 0 202.22457-41.468836 216.047516-54.77982 18.942555-18.942555 29.693734-43.004719 30.717656-68.602765 3.583727-48.124328-38.909031-100.344344-138.229453-172.018875l-1.535883-1.023922-1.023922-2.047844c-23.550203-15.358828-57.339625-48.636289-59.899429-71.674531-0.511961-3.071766-1.535883-12.287062 14.334906-29.181774 11.263141-9.727258 97.784539-83.961594 195.569078-113.143367l1.023922-0.511961 1.535883-0.511961c3.071766-1.023922 58.363547-18.942555 135.157687-18.942554 57.339625 0 111.607484 9.727258 161.779656 28.157851 4.095687 1.535883 9.215297 0.511961 12.287063-3.071765l33.789422-40.956875c4.607648-5.63157 2.559805-13.822945-4.095688-16.894711-72.698453-30.205695-143.861023-39.420992-203.248492-39.420993-93.688852 0-158.707891 22.526281-158.70789 22.526282C232.430266 148.546797 130.550039 242.235649 130.550039 242.235649 22.01432 351.283328 186.865742 455.72336 186.865742 455.72336c113.655328 81.91375 108.535719 109.04768 108.535719 109.047679 0 50.684133-122.358664 55.803742-174.57868 55.803742-14.334906 0-23.550203-0.511961-23.550203-0.511961C-4.095687 620.574781 4.095687 677.402445 4.095687 677.402445c7.167453 259.052234 351.205203 331.750687 351.205204 331.750688 48.124328 10.239219 92.66493 14.334906 134.645726 14.334906 310.248328 0 448.477781-246.765172 448.477781-246.765172 153.588281-268.779492 12.799023-464.860531-53.755898-535.51114-4.095687-3.583727-10.239219-4.095687-14.334906-1.023922z" p-id="9682" fill="#ffffff"></path></svg>