<?xml version="1.0" standalone="no"?><!DOCTYPE svg PUBLIC "-//W3C//DTD SVG 1.1//EN" "http://www.w3.org/Graphics/SVG/1.1/DTD/svg11.dtd"><svg t="1703657714503" class="icon" viewBox="0 0 1026 1024" version="1.1" xmlns="http://www.w3.org/2000/svg" p-id="3551" xmlns:xlink="http://www.w3.org/1999/xlink" width="200.390625" height="200"><path d="M897.024 0q26.624 0 49.664 10.24t40.448 27.648 27.648 40.448 10.24 49.664v576.512q0 26.624-10.24 49.664t-27.648 40.448-40.448 27.648-49.664 10.24h-128v-128h63.488q26.624 0 45.568-18.432t18.944-45.056V320.512q0-26.624-18.944-45.568T832.512 256h-512q-26.624 0-45.568 18.944T256 320.512V384H128V128q0-26.624 10.24-49.664t27.648-40.448 40.448-27.648T256 0h641.024zM576.512 448.512q26.624 0 49.664 10.24t40.448 27.648 27.648 40.448 10.24 49.664v256q0 26.624-10.24 49.664t-27.648 40.448-40.448 27.648-49.664 10.24h-384q-26.624 0-50.176-10.24t-40.96-27.648-27.648-40.448-10.24-49.664v-256q0-26.624 10.24-49.664t27.648-40.448 40.96-27.648 50.176-10.24h384z m0 256q0-26.624-18.944-45.056T512 641.024H256q-26.624 0-45.056 18.432t-18.432 45.056v64.512q0 26.624 18.432 45.056T256 832.512h256q26.624 0 45.568-18.432t18.944-45.056v-64.512z" p-id="3552" fill="#ffffff"></path></svg>