<?xml version="1.0" standalone="no"?><!DOCTYPE svg PUBLIC "-//W3C//DTD SVG 1.1//EN" "http://www.w3.org/Graphics/SVG/1.1/DTD/svg11.dtd"><svg t="1703657917027" class="icon" viewBox="0 0 1024 1024" version="1.1" xmlns="http://www.w3.org/2000/svg" p-id="3749" xmlns:xlink="http://www.w3.org/1999/xlink" width="200" height="200"><path d="M170.666667 113.777778h682.666666a56.888889 56.888889 0 0 1 56.888889 56.888889v103.594666a56.888889 56.888889 0 0 1-56.888889 56.888889H170.666667a56.888889 56.888889 0 0 1-56.888889-56.888889V170.666667a56.888889 56.888889 0 0 1 56.888889-56.888889m0 297.813333h166.456889a56.888889 56.888889 0 0 1 56.888888 56.888889V853.333333a56.888889 56.888889 0 0 1-56.888888 56.888889H170.666667a56.888889 56.888889 0 0 1-56.888889-56.888889V468.48a56.888889 56.888889 0 0 1 56.888889-56.888889m377.656889 13.937778H853.333333a56.888889 56.888889 0 0 1 56.888889 56.888889v82.545778a56.888889 56.888889 0 0 1-56.888889 56.888888H548.323556a56.888889 56.888889 0 0 1-56.888889-56.888888V482.417778a56.888889 56.888889 0 0 1 56.888889-56.888889m0 288.369778H853.333333a56.888889 56.888889 0 0 1 56.888889 56.888889V853.333333a56.888889 56.888889 0 0 1-56.888889 56.888889H548.323556a56.888889 56.888889 0 0 1-56.888889-56.888889v-82.488889a56.888889 56.888889 0 0 1 56.888889-56.888888" p-id="3750" fill="#ffffff"></path></svg>