<?xml version="1.0" standalone="no"?><!DOCTYPE svg PUBLIC "-//W3C//DTD SVG 1.1//EN" "http://www.w3.org/Graphics/SVG/1.1/DTD/svg11.dtd"><svg t="1705576106244" class="icon" viewBox="0 0 1024 1024" version="1.1" xmlns="http://www.w3.org/2000/svg" p-id="8089" xmlns:xlink="http://www.w3.org/1999/xlink" width="200" height="200"><path d="M429.634783 256c-2.226087 0-4.452174 0-6.678261-2.226087l-89.043479-80.13913-84.591304 80.13913c-4.452174 4.452174-11.130435 4.452174-15.582609 0-4.452174-4.452174-4.452174-11.130435 0-15.582609l91.269566-86.817391c4.452174-4.452174 11.130435-4.452174 15.582608 0l89.043479 80.13913 100.173913-80.13913c4.452174-4.452174 11.130435-2.226087 15.582608 2.226087 4.452174 4.452174 2.226087 11.130435-2.226087 15.582609l-106.852174 86.817391c-2.226087-2.226087-4.452174 0-6.67826 0zM240.417391 474.156522c-6.678261 0-11.130435-4.452174-11.130434-11.130435V333.913043c0-6.678261 4.452174-11.130435 11.130434-11.130434s11.130435 4.452174 11.130435 11.130434v129.113044c0 6.678261-4.452174 11.130435-11.130435 11.130435zM333.913043 474.156522c-6.678261 0-11.130435-4.452174-11.130434-11.130435v-191.443478c0-6.678261 4.452174-11.130435 11.130434-11.130435s11.130435 4.452174 11.130435 11.130435v191.443478c0 6.678261-6.678261 11.130435-11.130435 11.130435zM425.182609 474.156522c-6.678261 0-11.130435-4.452174-11.130435-11.130435V311.652174c0-6.678261 4.452174-11.130435 11.130435-11.130435s11.130435 4.452174 11.130434 11.130435v151.373913c0 6.678261-4.452174 11.130435-11.130434 11.130435zM536.486957 474.156522c-6.678261 0-11.130435-4.452174-11.130435-11.130435v-191.443478c0-6.678261 4.452174-11.130435 11.130435-11.130435s11.130435 4.452174 11.130434 11.130435v191.443478c0 6.678261-4.452174 11.130435-11.130434 11.130435z" p-id="8090" fill="#ffffff"></path><path d="M1019.547826 988.382609l-62.330435-89.043479c40.069565-44.521739 66.782609-102.4 66.782609-166.956521 0-135.791304-109.078261-244.869565-244.869565-244.869566s-244.869565 109.078261-244.869565 244.869566 109.078261 244.869565 244.869565 244.869565c53.426087 0 104.626087-17.808696 144.695652-48.973913l60.104348 84.591304c4.452174 6.678261 11.130435 8.904348 17.808695 8.904348 4.452174 0 8.904348-2.226087 13.356522-4.452174 8.904348-4.452174 11.130435-17.808696 4.452174-28.93913zM576.556522 734.608696c0-111.304348 89.043478-200.347826 200.347826-200.347826s200.347826 89.043478 200.347826 200.347826-89.043478 200.347826-200.347826 200.347826-200.347826-91.269565-200.347826-200.347826z" p-id="8091" fill="#ffffff"></path><path d="M667.826087 645.565217h80.13913c6.678261 0 11.130435-4.452174 11.130435-11.130434s-4.452174-11.130435-8.904348-11.130435H667.826087c-6.678261 0-11.130435 4.452174-11.130435 11.130435s6.678261 11.130435 11.130435 11.130434zM803.617391 645.565217h53.426087c6.678261 0 11.130435-4.452174 11.130435-11.130434s-6.678261-11.130435-11.130435-11.130435h-53.426087c-6.678261 0-11.130435 4.452174-11.130434 11.130435s4.452174 11.130435 11.130434 11.130434zM741.286957 701.217391c0-6.678261-4.452174-11.130435-11.130435-11.130434H645.565217c-6.678261 0-11.130435 4.452174-11.130434 11.130434s4.452174 11.130435 11.130434 11.130435h84.591305c6.678261 0 11.130435-4.452174 11.130435-11.130435zM779.130435 712.347826h109.078261c6.678261 0 11.130435-4.452174 11.130434-11.130435s-4.452174-11.130435-11.130434-11.130434H779.130435c-6.678261 0-11.130435 4.452174-11.130435 11.130434s4.452174 11.130435 11.130435 11.130435zM814.747826 770.226087c0-6.678261-4.452174-11.130435-11.130435-11.130435H667.826087c-6.678261 0-11.130435 4.452174-11.130435 11.130435s4.452174 11.130435 11.130435 11.130435h135.791304c6.678261 0 11.130435-4.452174 11.130435-11.130435zM839.234783 770.226087c0 6.678261 4.452174 11.130435 11.130434 11.130435h69.008696c6.678261 0 11.130435-4.452174 11.130435-11.130435s-4.452174-11.130435-11.130435-11.130435h-69.008696c-6.678261 0-11.130435 4.452174-11.130434 11.130435zM850.365217 823.652174h-142.469565c-6.678261 0-11.130435 4.452174-11.130435 11.130435s4.452174 11.130435 11.130435 11.130434h142.469565c6.678261 0 11.130435-4.452174 11.130435-11.130434s-4.452174-11.130435-11.130435-11.130435z" p-id="8092" fill="#ffffff"></path><path d="M155.826087 0C71.234783 0 0 71.234783 0 155.826087v587.686956C0 823.652174 64.556522 890.434783 144.695652 890.434783h451.895652v-44.52174H155.826087c-60.104348 0-109.078261-46.747826-111.304348-106.852173 2.226087-53.426087 46.747826-97.947826 100.173913-97.947827h454.121739v-44.521739H146.921739c-40.069565 0-73.46087 15.582609-100.173913 42.295653V155.826087c0-62.330435 48.973913-111.304348 111.304348-111.304348H734.608696v467.478261h44.521739V0H155.826087z" p-id="8093" fill="#ffffff"></path><path d="M155.826087 723.478261c-13.356522 0-22.26087 8.904348-22.26087 22.260869s8.904348 22.26087 22.26087 22.26087h391.791304c13.356522 0 22.26087-8.904348 22.26087-22.26087s-8.904348-22.26087-22.26087-22.260869H155.826087z" p-id="8094" fill="#ffffff"></path></svg>